<svg width="30" height="30" viewBox="0 0 30 30" fill="none" xmlns="http://www.w3.org/2000/svg">
<path d="M14 18.5V0.5C14 0.223875 13.7761 0 13.5 0H0.5C0.223875 0 0 0.223875 0 0.5V18.5C0 18.7761 0.223875 19 0.5 19H13.5C13.7761 19 14 18.7761 14 18.5ZM13 18H1V16H13V18ZM13 11.5H11.207L10.5125 10.8055C12.0682 8.85925 11.7517 6.02031 9.8055 4.46456C7.85925 2.90881 5.02031 3.22531 3.46456 5.17156C1.90881 7.11781 2.22531 9.95675 4.17156 11.5125C5.81875 12.8292 8.15831 12.8292 9.8055 11.5125L10.6465 12.3535C10.7402 12.4473 10.8674 12.5 11 12.5H13V15H1V1H13V11.5ZM6.6465 8.3535L9.092 10.8C7.53819 11.9628 5.33594 11.6458 4.17312 10.092C3.01031 8.53819 3.32731 6.33594 4.88112 5.17312C6.43494 4.01031 8.63719 4.32731 9.8 5.88112C10.7341 7.12931 10.7341 8.84375 9.8 10.092L7.3535 7.6465C7.15487 7.45469 6.83831 7.46019 6.6465 7.65881C6.45937 7.85256 6.45937 8.15975 6.6465 8.3535Z" fill="#3B3D4B"/>
<path d="M12.5 13.5H11.5V14.5H12.5V13.5Z" fill="#3B3D4B"/>
<path d="M2.5 13.5H1.5V14.5H2.5V13.5Z" fill="#3B3D4B"/>
<path d="M2.5 1.5H1.5V2.5H2.5V1.5Z" fill="#3B3D4B"/>
<path d="M12.5 1.5H11.5V2.5H12.5V1.5Z" fill="#3B3D4B"/>
<path d="M5 16.5H4V17.5H5V16.5Z" fill="#3B3D4B"/>
<path d="M3 16.5H2V17.5H3V16.5Z" fill="#3B3D4B"/>
<path d="M7.5 6C7.5 5.72387 7.27612 5.5 7 5.5C5.62 5.50163 4.50163 6.62 4.5 8C4.5 8.27612 4.72387 8.5 5 8.5C5.27613 8.5 5.5 8.27612 5.5 8C5.5 7.17156 6.17156 6.5 7 6.5C7.27612 6.5 7.5 6.27613 7.5 6Z" fill="#3B3D4B"/>
<path d="M12 16.5H6V17.5H12V16.5Z" fill="#3B3D4B"/>
<path d="M29.5 11H16.5C16.2239 11 16 11.2239 16 11.5V29.5C16 29.7761 16.2239 30 16.5 30H29.5C29.7761 30 30 29.7761 30 29.5V11.5C30 11.2239 29.7761 11 29.5 11ZM29 29H17V27H29V29ZM29 22.5H27.207L26.5125 21.8055C28.0683 19.8593 27.7517 17.0203 25.8055 15.4646C23.8593 13.9088 21.0203 14.2253 19.4646 16.1716C17.9088 18.1178 18.2253 20.9568 20.1716 22.5125C21.8187 23.8292 24.1583 23.8292 25.8055 22.5125L26.6465 23.3535C26.7402 23.4473 26.8674 23.5 27 23.5H29V26H17V12H29V22.5ZM22.6465 19.3535L25.092 21.8C23.5382 22.9628 21.3359 22.6458 20.1731 21.092C19.0103 19.5382 19.3273 17.3359 20.8811 16.1731C22.4349 15.0103 24.6372 15.3273 25.8 16.8811C26.7341 18.1293 26.7341 19.8437 25.8 21.092L23.3535 18.6465C23.1549 18.4546 22.8384 18.4601 22.6465 18.6588C22.4593 18.8525 22.4593 19.1597 22.6465 19.3535Z" fill="#3B3D4B"/>
<path d="M28.5 24.5H27.5V25.5H28.5V24.5Z" fill="#3B3D4B"/>
<path d="M18.5 24.5H17.5V25.5H18.5V24.5Z" fill="#3B3D4B"/>
<path d="M18.5 12.5H17.5V13.5H18.5V12.5Z" fill="#3B3D4B"/>
<path d="M28.5 12.5H27.5V13.5H28.5V12.5Z" fill="#3B3D4B"/>
<path d="M21 27.5H20V28.5H21V27.5Z" fill="#3B3D4B"/>
<path d="M19 27.5H18V28.5H19V27.5Z" fill="#3B3D4B"/>
<path d="M23.5 17C23.5 16.7239 23.2761 16.5 23 16.5C21.62 16.5016 20.5016 17.62 20.5 19C20.5 19.2761 20.7239 19.5 21 19.5C21.2761 19.5 21.5 19.2761 21.5 19C21.5 18.1716 22.1716 17.5 23 17.5C23.2761 17.5 23.5 17.2761 23.5 17Z" fill="#3B3D4B"/>
<path d="M28 27.5H22V28.5H28V27.5Z" fill="#3B3D4B"/>
<path d="M17.9745 4.76751L16.707 3.50001H21C21.8284 3.50001 22.5 4.17157 22.5 5.00001V10H23.5V5.00001C23.4983 3.62001 22.38 2.50164 21 2.50001H16.707L17.9745 1.23251L17.2675 0.525513L14.793 3.00001L17.2675 5.47451L17.9745 4.76751Z" fill="#3B3D4B"/>
<path d="M12.0255 25.2325L13.293 26.5H9C8.17156 26.5 7.5 25.8284 7.5 25V20H6.5V25C6.50162 26.38 7.62 27.4984 9 27.5H13.293L12.0255 28.7675L12.7325 29.4745L15.207 27L12.7325 24.5255L12.0255 25.2325Z" fill="#3B3D4B"/>
</svg>
