<svg width="20" height="19" viewBox="0 0 20 19" fill="none" xmlns="http://www.w3.org/2000/svg">
<g clip-path="url(#clip0)">
<path d="M15.8169 11.6069C15.4316 11.2382 14.9667 11.0411 14.4741 11.0411C13.9854 11.0411 13.5167 11.2346 13.1154 11.6033L11.86 12.7533C11.7567 12.7022 11.6534 12.6547 11.5541 12.6072C11.4111 12.5415 11.276 12.4795 11.1608 12.4138C9.98481 11.7274 8.91611 10.833 7.89112 9.67572C7.39452 9.09891 7.0608 8.61336 6.81846 8.12052C7.14423 7.84671 7.44617 7.56196 7.74016 7.28815C7.85139 7.18593 7.96263 7.08006 8.07387 6.97784C8.90817 6.21119 8.90817 5.2182 8.07387 4.45155L6.98929 3.4549C6.86613 3.34173 6.739 3.22491 6.61982 3.10808C6.38145 2.88174 6.13116 2.64809 5.87292 2.42905C5.48756 2.07858 5.02671 1.8924 4.54203 1.8924C4.05734 1.8924 3.58855 2.07858 3.19126 2.42905C3.18729 2.4327 3.18729 2.4327 3.18332 2.43635L1.83255 3.68855C1.32403 4.15584 1.03401 4.72535 0.970449 5.38613C0.875101 6.45214 1.21676 7.44513 1.47897 8.09496C2.12257 9.69032 3.084 11.1689 4.51819 12.7533C6.25829 14.6626 8.35197 16.1703 10.7436 17.2327C11.6574 17.6306 12.877 18.1016 14.2397 18.1819C14.3231 18.1855 14.4105 18.1892 14.49 18.1892C15.4077 18.1892 16.1785 17.8862 16.7823 17.2838C16.7863 17.2765 16.7942 17.2729 16.7982 17.2656C17.0048 17.0356 17.2432 16.8275 17.4935 16.6048C17.6643 16.4551 17.8391 16.2981 18.0099 16.1338C18.4032 15.7578 18.6098 15.3197 18.6098 14.8707C18.6098 14.418 18.3993 13.9836 17.998 13.6185L15.8169 11.6069ZM17.2392 15.4512C17.2352 15.4512 17.2352 15.4548 17.2392 15.4512C17.0843 15.6045 16.9253 15.7432 16.7545 15.8965C16.4963 16.1229 16.2341 16.3602 15.9878 16.6267C15.5865 17.021 15.1137 17.2071 14.494 17.2071C14.4344 17.2071 14.3708 17.2071 14.3112 17.2035C13.1313 17.1341 12.0348 16.7106 11.2124 16.3492C8.96379 15.3489 6.98929 13.9288 5.34851 12.129C3.99377 10.6286 3.08797 9.24129 2.48807 7.75179C2.1186 6.84277 1.98352 6.13453 2.04311 5.46645C2.08284 5.03931 2.26162 4.68519 2.59136 4.38218L3.9461 3.13729C4.14077 2.96936 4.34736 2.87809 4.54997 2.87809C4.80026 2.87809 5.00287 3.01682 5.13 3.13364C5.13398 3.13729 5.13795 3.14094 5.14192 3.14459C5.38427 3.35268 5.61469 3.56807 5.85703 3.79807C5.98019 3.91489 6.10732 4.03171 6.23445 4.15219L7.31903 5.14883C7.74016 5.53581 7.74016 5.89358 7.31903 6.28056C7.20382 6.38643 7.09258 6.4923 6.97737 6.59452C6.64365 6.90848 6.32583 7.20054 5.98019 7.48529C5.97224 7.49259 5.9643 7.49624 5.96033 7.50354C5.61866 7.81751 5.68223 8.12417 5.75374 8.33226C5.75771 8.34321 5.76168 8.35416 5.76566 8.36511C6.04773 8.99304 6.44501 9.58445 7.04888 10.289L7.05286 10.2927C8.14936 11.5339 9.30545 12.5014 10.5807 13.2425C10.7436 13.3374 10.9105 13.4141 11.0694 13.4871C11.2124 13.5528 11.3475 13.6148 11.4627 13.6806C11.4786 13.6879 11.4945 13.6988 11.5104 13.7061C11.6454 13.7682 11.7726 13.7974 11.9037 13.7974C12.2334 13.7974 12.44 13.6075 12.5076 13.5455L13.8663 12.2969C14.0013 12.1728 14.2159 12.0231 14.4662 12.0231C14.7125 12.0231 14.9151 12.1655 15.0382 12.2896C15.0422 12.2933 15.0422 12.2933 15.0462 12.2969L17.2352 14.3085C17.6444 14.6809 17.6444 15.0642 17.2392 15.4512Z" fill="white"/>
<path d="M11.1138 5.00647C12.1547 5.1671 13.1002 5.61979 13.8551 6.31342C14.6099 7.00706 15.0986 7.87593 15.2773 8.83241C15.321 9.07336 15.5475 9.24129 15.8057 9.24129C15.8375 9.24129 15.8653 9.23764 15.8971 9.23399C16.1911 9.19018 16.3858 8.93463 16.3381 8.66448C16.1235 7.5072 15.5276 6.45215 14.6179 5.61614C13.7081 4.78012 12.5599 4.23251 11.3006 4.03538C11.0066 3.99157 10.7324 4.17045 10.6808 4.43695C10.6291 4.70346 10.8198 4.96266 11.1138 5.00647Z" fill="white"/>
<path d="M19.743 8.5221C19.3894 6.61643 18.4121 4.88234 16.9103 3.50237C15.4086 2.12239 13.5215 1.22432 11.4477 0.899405C11.1577 0.851946 10.8835 1.03448 10.8319 1.30098C10.7842 1.57114 10.9789 1.82304 11.2729 1.8705C13.1242 2.1589 14.8127 2.96571 16.1555 4.196C17.4983 5.42994 18.3723 6.9815 18.6862 8.68273C18.7299 8.92368 18.9563 9.09161 19.2146 9.09161C19.2464 9.09161 19.2742 9.08796 19.306 9.08431C19.596 9.04415 19.7946 8.7886 19.743 8.5221Z" fill="white"/>
</g>
<defs>
<clipPath id="clip0">
<rect width="18.8235" height="17.2973" fill="white" transform="translate(0.941406 0.891891)"/>
</clipPath>
</defs>
</svg>
