<svg width="35" height="35" viewBox="0 0 35 35" fill="none" xmlns="http://www.w3.org/2000/svg">
<path d="M24.1197 17.546H19.8212C19.6021 16.704 18.9431 16.045 18.1011 15.8259V9.72186C18.1011 9.38903 17.8315 9.12 17.4992 9.12C17.167 9.12 16.8974 9.38903 16.8974 9.72186V15.8259C15.8622 16.095 15.0918 17.029 15.0918 18.1479C15.0918 19.4756 16.1715 20.5553 17.4992 20.5553C18.6175 20.5553 19.5522 19.785 19.8212 18.7498H24.1197C24.4519 18.7498 24.7216 18.4807 24.7216 18.1479C24.7216 17.8151 24.4525 17.546 24.1197 17.546ZM17.4992 19.3516C16.8354 19.3516 16.2955 18.8118 16.2955 18.1479C16.2955 17.4841 16.8354 16.9442 17.4992 16.9442C18.1631 16.9442 18.703 17.4841 18.703 18.1479C18.703 18.8118 18.1631 19.3516 17.4992 19.3516Z" fill="#D80027"/>
<path d="M30.206 5.87651L32.6713 8.34174C32.7844 8.45489 32.9373 8.51808 33.0968 8.51808C33.2563 8.51808 33.4097 8.45489 33.5223 8.34174C35.4284 6.43624 35.4284 3.33485 33.5223 1.42936C31.6162 -0.476129 28.5154 -0.476129 26.6099 1.42936C26.4968 1.54251 26.4336 1.69478 26.4336 1.85488C26.4336 2.01497 26.4968 2.16785 26.6099 2.28039L29.355 5.02548L28.3324 6.04804C25.4555 3.46967 21.6584 1.89761 17.5002 1.89761C13.3419 1.89761 9.54476 3.46967 6.66787 6.04804L5.6447 5.02548L8.38979 2.28039C8.50294 2.16724 8.56614 2.01497 8.56614 1.85488C8.56614 1.69478 8.50294 1.54191 8.38979 1.42936C6.4843 -0.476129 3.38351 -0.476129 1.47742 1.42936C-0.428672 3.33485 -0.428672 6.43624 1.47742 8.34174C1.59057 8.45489 1.74344 8.51808 1.90294 8.51808C2.06243 8.51808 2.2159 8.45489 2.32845 8.34174L4.79367 5.87651L5.80239 6.88523C2.98629 9.80847 1.24932 13.7783 1.24932 18.1479C1.24932 24.1051 4.47348 29.3208 9.2667 32.1502L7.44427 33.9726C7.20894 34.2079 7.20894 34.5883 7.44427 34.8236C7.56163 34.941 7.71571 35 7.86978 35C8.02386 35 8.17794 34.941 8.2953 34.8236L10.3717 32.7472C12.5252 33.8029 14.9441 34.3981 17.4996 34.3981C20.0551 34.3981 22.4739 33.8029 24.6274 32.7472L26.7038 34.8236C26.8212 34.941 26.9752 35 27.1293 35C27.2834 35 27.4375 34.941 27.5548 34.8236C27.7902 34.5883 27.7902 34.2079 27.5548 33.9726L25.7324 32.1502C30.5256 29.3208 33.7498 24.1051 33.7498 18.1479C33.7498 13.7783 32.0128 9.80847 29.1967 6.88523L30.206 5.87651ZM32.6707 2.28039C33.9622 3.57199 34.0922 5.59183 33.0613 7.03088L27.9208 1.88979C29.3592 0.858799 31.3785 0.988199 32.6707 2.28039ZM1.93784 7.03028C0.906857 5.59183 1.03686 3.57199 2.32845 2.28039C3.62004 0.988801 5.63989 0.859401 7.07834 1.88979L1.93784 7.03028ZM17.4996 33.1944C9.2029 33.1944 2.45304 26.4445 2.45304 18.1479C2.45304 9.8512 9.2029 3.10133 17.4996 3.10133C25.7962 3.10133 32.5461 9.8512 32.5461 18.1479C32.5461 26.4445 25.7968 33.1944 17.4996 33.1944Z" fill="#D80027"/>
<path d="M17.4998 6.03788C17.832 6.03788 18.1017 5.76885 18.1017 5.43602V4.83416C18.1017 4.50133 17.832 4.2323 17.4998 4.2323C17.1676 4.2323 16.8979 4.50133 16.8979 4.83416V5.43602C16.8979 5.76825 17.1676 6.03788 17.4998 6.03788Z" fill="#D80027"/>
<path d="M17.4998 30.1123C17.1676 30.1123 16.8979 30.3813 16.8979 30.7142V31.316C16.8979 31.6489 17.1676 31.9179 17.4998 31.9179C17.832 31.9179 18.1017 31.6489 18.1017 31.316V30.7142C18.1017 30.3813 17.8326 30.1123 17.4998 30.1123Z" fill="#D80027"/>
<path d="M30.1385 18.6769H30.7403C31.0726 18.6769 31.3422 18.4079 31.3422 18.0751C31.3422 17.7422 31.0726 17.4732 30.7403 17.4732H30.1385C29.8063 17.4732 29.5366 17.7422 29.5366 18.0751C29.5366 18.4079 29.8063 18.6769 30.1385 18.6769Z" fill="#D80027"/>
<path d="M4.86095 17.4732H4.25909C3.92686 17.4732 3.65723 17.7422 3.65723 18.0751C3.65723 18.4079 3.92686 18.6769 4.25909 18.6769H4.86095C5.19317 18.6769 5.46281 18.4079 5.46281 18.0751C5.46281 17.7422 5.19378 17.4732 4.86095 17.4732Z" fill="#D80027"/>
<path d="M26.4375 8.28642L26.0119 8.71194C25.7766 8.94726 25.7766 9.32764 26.0119 9.56297C26.1293 9.68033 26.2834 9.73931 26.4375 9.73931C26.5915 9.73931 26.7456 9.68033 26.863 9.56297L27.2885 9.13745C27.5238 8.90212 27.5238 8.52175 27.2885 8.28642C27.0532 8.05109 26.6722 8.05109 26.4375 8.28642Z" fill="#D80027"/>
<path d="M8.13717 26.5865L7.71165 27.0121C7.47632 27.2474 7.47632 27.6278 7.71165 27.8631C7.82901 27.9805 7.98309 28.0394 8.13717 28.0394C8.29124 28.0394 8.44532 27.9805 8.56268 27.8631L8.9882 27.4376C9.22352 27.2023 9.22352 26.8219 8.9882 26.5865C8.75287 26.3512 8.37249 26.3518 8.13717 26.5865Z" fill="#D80027"/>
<path d="M26.863 26.5866C26.6276 26.3513 26.2473 26.3513 26.0119 26.5866C25.7766 26.8219 25.7766 27.2023 26.0119 27.4376L26.4375 27.8631C26.5548 27.9805 26.7089 28.0395 26.863 28.0395C27.017 28.0395 27.1711 27.9805 27.2885 27.8631C27.5238 27.6278 27.5238 27.2474 27.2885 27.0121L26.863 26.5866Z" fill="#D80027"/>
<path d="M8.56268 8.28642C8.32735 8.05109 7.94698 8.05109 7.71165 8.28642C7.47632 8.52175 7.47632 8.90212 7.71165 9.13745L8.13717 9.56297C8.25453 9.68033 8.40861 9.73931 8.56268 9.73931C8.71676 9.73931 8.87083 9.68033 8.9882 9.56297C9.22352 9.32764 9.22352 8.94726 8.9882 8.71194L8.56268 8.28642Z" fill="#D80027"/>
</svg>
