<svg width="98" height="16" viewBox="0 0 98 16" fill="none" xmlns="http://www.w3.org/2000/svg">
<path d="M7.92969 4.54102C7.66016 4.23633 7.37305 4.00781 7.06836 3.85547C6.76367 3.70313 6.43555 3.61523 6.08398 3.5918V1.85156C7.39648 1.91016 8.49805 2.37305 9.38867 3.24023L7.92969 4.54102ZM6.08398 13.3477C6.43555 13.3125 6.76367 13.2188 7.06836 13.0664C7.38477 12.9141 7.67188 12.6914 7.92969 12.3984L9.38867 13.6816C8.94336 14.1152 8.44531 14.4492 7.89453 14.6836C7.34375 14.918 6.74023 15.0527 6.08398 15.0879V13.3477ZM0.388672 8.46094C0.388672 7.41797 0.511719 6.49805 0.757812 5.70117C1.01562 4.9043 1.36719 4.23047 1.8125 3.67969C2.25781 3.12891 2.7793 2.70117 3.37695 2.39648C3.98633 2.0918 4.64844 1.91016 5.36328 1.85156V3.60938C4.97656 3.66797 4.61328 3.80273 4.27344 4.01367C3.93359 4.21289 3.63477 4.50586 3.37695 4.89258C3.11914 5.2793 2.91406 5.77148 2.76172 6.36914C2.62109 6.95508 2.54492 7.65234 2.5332 8.46094C2.54492 9.28125 2.62109 9.98438 2.76172 10.5703C2.91406 11.1562 3.11914 11.6484 3.37695 12.0469C3.63477 12.4453 3.93359 12.75 4.27344 12.9609C4.625 13.1719 4.98828 13.3008 5.36328 13.3477V15.0703C4.64844 15.0234 3.98633 14.8477 3.37695 14.543C2.7793 14.2383 2.25781 13.8105 1.8125 13.2598C1.36719 12.709 1.01562 12.0352 0.757812 11.2383C0.511719 10.4297 0.388672 9.50391 0.388672 8.46094ZM16.9648 5.0332C17.6094 5.06836 18.1953 5.22656 18.7227 5.50781C19.25 5.77734 19.6895 6.14062 20.041 6.59766C20.4043 7.04297 20.6855 7.56445 20.8848 8.16211C21.084 8.75977 21.1836 9.39844 21.1836 10.0781C21.1836 10.7578 21.0781 11.3965 20.8672 11.9941C20.668 12.5801 20.3867 13.0957 20.0234 13.541C19.6602 13.9746 19.2148 14.3262 18.6875 14.5957C18.1602 14.8652 17.5859 15.0234 16.9648 15.0703V13.3828C17.5508 13.2539 18.0254 12.8848 18.3887 12.2754C18.7637 11.666 18.9512 10.9336 18.9512 10.0781C18.9512 9.64453 18.9043 9.24023 18.8105 8.86523C18.7285 8.47852 18.5996 8.13281 18.4238 7.82812C18.248 7.52344 18.0371 7.27148 17.791 7.07227C17.5449 6.87305 17.2695 6.74414 16.9648 6.68555V5.0332ZM12.0605 10.043C12.0605 9.36328 12.1602 8.73047 12.3594 8.14453C12.5586 7.55859 12.8398 7.04883 13.2031 6.61523C13.5781 6.16992 14.0234 5.8125 14.5391 5.54297C15.0547 5.27344 15.623 5.10938 16.2441 5.05078V6.68555C15.6582 6.81445 15.1895 7.18359 14.8379 7.79297C14.4863 8.40234 14.3105 9.13477 14.3105 9.99023C14.3105 10.4238 14.3516 10.834 14.4336 11.2207C14.5273 11.6074 14.6562 11.9531 14.8203 12.2578C14.9844 12.5625 15.1836 12.8145 15.418 13.0137C15.6641 13.2129 15.9395 13.3359 16.2441 13.3828V15.0703C15.5996 15.0234 15.0195 14.8652 14.5039 14.5957C13.9883 14.3145 13.5488 13.9512 13.1855 13.5059C12.8223 13.0605 12.541 12.5391 12.3418 11.9414C12.1543 11.3438 12.0605 10.7109 12.0605 10.043ZM26.0527 11.9766C26.0527 12.375 26.1055 12.6914 26.2109 12.9258C26.3164 13.1484 26.4629 13.3184 26.6504 13.4355C26.8379 13.541 27.0488 13.6113 27.2832 13.6465C27.5293 13.6816 27.793 13.6992 28.0742 13.6992V15C27.9219 15.0234 27.7637 15.041 27.5996 15.0527C27.4707 15.0645 27.3184 15.0703 27.1426 15.0703C26.9668 15.082 26.791 15.0879 26.6152 15.0879C26.4395 15.0879 26.2637 15.082 26.0879 15.0703C25.9121 15.0586 25.7539 15.041 25.6133 15.0176C25.2148 14.9355 24.9043 14.7598 24.6816 14.4902C24.459 14.2207 24.2891 13.9219 24.1719 13.5938C24.0547 13.2539 23.9785 12.9258 23.9434 12.6094C23.9199 12.293 23.9082 12.0469 23.9082 11.8711V11.6602V1.3418H26.0527V11.9766ZM32.4512 15H30.3066V5.08594H32.4512V15ZM32.6445 1.92188C32.6445 2.27344 32.5215 2.57227 32.2754 2.81836C32.0293 3.05273 31.7305 3.16992 31.3789 3.16992C31.0273 3.16992 30.7285 3.04688 30.4824 2.80078C30.248 2.55469 30.1309 2.26172 30.1309 1.92188C30.1309 1.57031 30.2539 1.27148 30.5 1.02539C30.7461 0.779297 31.0391 0.65625 31.3789 0.65625C31.7305 0.65625 32.0293 0.779297 32.2754 1.02539C32.5215 1.27148 32.6445 1.57031 32.6445 1.92188ZM35.4395 1.3418H37.5664V13.8223C37.5547 13.9863 37.5371 14.1738 37.5137 14.3848C37.4902 14.5957 37.4727 14.8008 37.4609 15H35.4395V1.3418ZM44.1055 8.0918C44.2461 8.63086 44.3164 9.22266 44.3164 9.86719C44.3164 10.5352 44.2344 11.1855 44.0703 11.8184C43.918 12.4512 43.6777 13.0137 43.3496 13.5059C43.0332 13.9863 42.6289 14.373 42.1367 14.666C41.6562 14.9473 41.0879 15.0879 40.4316 15.0879C40.0215 15.0879 39.6289 15.041 39.2539 14.9473C38.8789 14.8535 38.5566 14.7246 38.2871 14.5605V12.7324C38.4629 12.9316 38.668 13.0957 38.9023 13.2246C39.1484 13.3535 39.418 13.418 39.7109 13.418C40.0625 13.418 40.3789 13.3301 40.6602 13.1543C40.9531 12.9785 41.1992 12.7441 41.3984 12.4512C41.6094 12.1465 41.7734 11.7891 41.8906 11.3789C42.0195 10.9688 42.084 10.5293 42.084 10.0605C42.084 9.60352 42.0254 9.16992 41.9082 8.75977C41.8027 8.34961 41.6504 7.98633 41.4512 7.66992C41.2637 7.35352 41.0293 7.10156 40.748 6.91406C40.4668 6.72656 40.1504 6.63281 39.7988 6.63281C39.4941 6.63281 39.2129 6.69727 38.9551 6.82617C38.709 6.94336 38.4863 7.11914 38.2871 7.35352V5.47266C38.5566 5.32031 38.8555 5.20312 39.1836 5.12109C39.5117 5.03906 39.8516 4.99805 40.2031 4.99805C40.5898 4.99805 40.9824 5.05078 41.3809 5.15625C41.7793 5.26172 42.1484 5.4375 42.4883 5.68359C42.8398 5.92969 43.1562 6.25195 43.4375 6.65039C43.7305 7.04883 43.9531 7.5293 44.1055 8.0918ZM48.6055 5.08594L48.834 6.10547V11.4844V11.5195V15H46.707V5.08594H48.6055ZM49.5547 5.52539C49.8477 5.36133 50.1992 5.23828 50.6094 5.15625C51.0195 5.0625 51.5762 5.01562 52.2793 5.01562V7.23047C51.9512 7.13672 51.5527 7.08398 51.084 7.07227C50.8262 7.07227 50.5625 7.0957 50.293 7.14258C50.0352 7.17773 49.7891 7.23633 49.5547 7.31836V5.52539ZM56.6738 15H54.5293V5.08594H56.6738V15ZM56.8672 1.92188C56.8672 2.27344 56.7441 2.57227 56.498 2.81836C56.252 3.05273 55.9531 3.16992 55.6016 3.16992C55.25 3.16992 54.9512 3.04688 54.7051 2.80078C54.4707 2.55469 54.3535 2.26172 54.3535 1.92188C54.3535 1.57031 54.4766 1.27148 54.7227 1.02539C54.9688 0.779297 55.2617 0.65625 55.6016 0.65625C55.9531 0.65625 56.252 0.779297 56.498 1.02539C56.7441 1.27148 56.8672 1.57031 56.8672 1.92188ZM62.4922 11.9941C62.4922 12.3926 62.5449 12.7031 62.6504 12.9258C62.7559 13.1484 62.9023 13.3184 63.0898 13.4355C63.2891 13.5527 63.5059 13.6289 63.7402 13.6641C63.9863 13.6875 64.2441 13.6992 64.5137 13.6992V15C64.3613 15.0234 64.209 15.041 64.0566 15.0527C63.9277 15.0645 63.7695 15.0703 63.582 15.0703C63.4062 15.082 63.2305 15.0879 63.0547 15.0879C62.8789 15.0879 62.6973 15.082 62.5098 15.0703C62.334 15.0586 62.1816 15.041 62.0527 15.0176C61.6543 14.9473 61.3438 14.7773 61.1211 14.5078C60.8984 14.2266 60.7285 13.9219 60.6113 13.5938C60.5059 13.2539 60.4355 12.9258 60.4004 12.6094C60.377 12.293 60.3652 12.0469 60.3652 11.8711V6.52734H59.0645V5.08594H60.3652V2.27344H62.4922V5.08594H64.0742V6.52734H62.4922V11.9941ZM71.6152 4.99805C72.248 5.05664 72.8164 5.22656 73.3203 5.50781C73.8359 5.78906 74.2754 6.15234 74.6387 6.59766C75.002 7.04297 75.2773 7.55273 75.4648 8.12695C75.6641 8.70117 75.7637 9.29883 75.7637 9.91992C75.7637 10.2012 75.7461 10.4824 75.7109 10.7637H69.6816V9.2168H73.7422C73.7422 8.91211 73.6895 8.61914 73.584 8.33789C73.4902 8.05664 73.3438 7.79883 73.1445 7.56445C72.957 7.31836 72.7344 7.11328 72.4766 6.94922C72.2188 6.78516 71.9316 6.68555 71.6152 6.65039V4.99805ZM71.5449 13.3477C71.6738 13.3477 71.832 13.3359 72.0195 13.3125C72.2188 13.2773 72.4238 13.2246 72.6348 13.1543C72.8574 13.0723 73.0742 12.9727 73.2852 12.8555C73.5078 12.7383 73.7012 12.5977 73.8652 12.4336L74.6387 13.6113C74.252 14.0918 73.8008 14.4551 73.2852 14.7012C72.7695 14.9473 72.1133 15.0703 71.3164 15.0703C70.6719 15.0703 70.0684 14.9414 69.5059 14.6836C68.9434 14.4141 68.4629 14.0508 68.0645 13.5938C67.666 13.1367 67.3496 12.6035 67.1152 11.9941C66.8809 11.3848 66.7637 10.7285 66.7637 10.0254C66.7637 9.35742 66.8691 8.72461 67.0801 8.12695C67.3027 7.5293 67.6016 7.00781 67.9766 6.5625C68.3516 6.10547 68.7852 5.73633 69.2773 5.45508C69.7812 5.17383 70.3203 5.01562 70.8945 4.98047V6.66797C70.4609 6.75 70.1035 6.92578 69.8223 7.19531C69.541 7.46484 69.3184 7.77539 69.1543 8.12695C69.002 8.4668 68.8906 8.81836 68.8203 9.18164C68.7617 9.54492 68.7324 9.85547 68.7324 10.1133C68.7324 10.5703 68.7852 10.998 68.8906 11.3965C69.0078 11.7832 69.1836 12.123 69.418 12.416C69.6523 12.6973 69.9395 12.9258 70.2793 13.1016C70.6309 13.2656 71.0527 13.3477 71.5449 13.3477ZM85.2734 7.65234C85.0977 7.44141 84.8516 7.24805 84.5352 7.07227C84.2305 6.88477 83.8203 6.77344 83.3047 6.73828V5.05078C83.9492 5.08594 84.5 5.22656 84.957 5.47266C85.4258 5.70703 85.8477 6.05273 86.2227 6.50977L85.2734 7.65234ZM83.3047 13.3301C83.7266 13.2832 84.084 13.1836 84.377 13.0312C84.6816 12.8672 84.9688 12.6797 85.2383 12.4688L86.0293 13.6113C85.666 14.0684 85.2734 14.4199 84.8516 14.666C84.4297 14.9004 83.9141 15.0352 83.3047 15.0703V13.3301ZM78.4004 10.043C78.4004 9.375 78.4941 8.74805 78.6816 8.16211C78.8809 7.57617 79.168 7.06055 79.543 6.61523C79.918 6.16992 80.3574 5.8125 80.8613 5.54297C81.377 5.26172 81.9512 5.09766 82.584 5.05078V6.75586C81.998 6.88477 81.5293 7.24805 81.1777 7.8457C80.8262 8.43164 80.6504 9.14648 80.6504 9.99023C80.6504 10.4238 80.6914 10.834 80.7734 11.2207C80.8672 11.5957 80.9961 11.9297 81.1602 12.2227C81.3242 12.5156 81.5234 12.7617 81.7578 12.9609C82.0039 13.1602 82.2793 13.2832 82.584 13.3301V15.0703C81.9395 15.0352 81.3594 14.8828 80.8438 14.6133C80.3281 14.332 79.8887 13.9688 79.5254 13.5234C79.1621 13.0664 78.8809 12.5391 78.6816 11.9414C78.4941 11.3438 78.4004 10.7109 78.4004 10.043ZM88.9648 1.3418H91.0918V15H88.9648V1.3418ZM96.3477 6.17578C96.5469 6.375 96.6992 6.60938 96.8047 6.87891C96.9219 7.13672 97.0039 7.41211 97.0508 7.70508C97.1094 7.98633 97.1445 8.27344 97.1562 8.56641C97.168 8.85938 97.1738 9.14648 97.1738 9.42773V14.6484V15H95.0293V9.60352C95.0293 9.20508 95.0117 8.82422 94.9766 8.46094C94.9414 8.09766 94.8594 7.77539 94.7305 7.49414C94.6016 7.21289 94.4258 6.99609 94.2031 6.84375C93.9805 6.67969 93.6699 6.59766 93.2715 6.59766C93.1074 6.59766 92.8848 6.62695 92.6035 6.68555C92.334 6.73242 92.0703 6.81445 91.8125 6.93164V5.57812C92.1289 5.41406 92.4688 5.27344 92.832 5.15625C93.207 5.03906 93.5703 4.98047 93.9219 4.98047C94.4492 4.98047 94.8945 5.0918 95.2578 5.31445C95.6211 5.52539 95.9844 5.8125 96.3477 6.17578Z" fill="white"/>
</svg>
