<svg width="63" height="48" viewBox="0 0 63 48" fill="none" xmlns="http://www.w3.org/2000/svg">
<path d="M38.8726 22.8588L40.6121 23.9175C40.8107 24.0384 40.9029 24.2884 40.8349 24.5194C40.383 26.0535 39.6116 27.4394 38.6026 28.5904C38.5271 28.6766 38.426 28.7332 38.316 28.7508C38.206 28.7684 38.0936 28.7461 37.9972 28.6874L36.259 27.6289C35.5277 28.2896 34.6869 28.8022 33.779 29.1409V31.2577C33.779 31.3751 33.7411 31.489 33.6715 31.5806C33.6019 31.6723 33.5049 31.7363 33.3962 31.762C31.9694 32.0999 30.437 32.1173 28.9381 31.7623C28.7141 31.7092 28.5543 31.4999 28.5543 31.2577V29.1409C27.6464 28.8022 26.8056 28.2896 26.0743 27.6289L24.3361 28.6874C24.2397 28.7461 24.1273 28.7684 24.0173 28.7508C23.9073 28.7332 23.8062 28.6766 23.7307 28.5904C22.7218 27.4394 21.9503 26.0535 21.4984 24.5194C21.4304 24.2885 21.5226 24.0384 21.7212 23.9175L23.4608 22.8588C23.286 21.8601 23.286 20.8361 23.4608 19.8374L21.7213 18.7786C21.5226 18.6577 21.4304 18.4077 21.4985 18.1767C21.9503 16.6427 22.7218 15.2568 23.7307 14.1057C23.8062 14.0195 23.9073 13.963 24.0173 13.9454C24.1273 13.9277 24.2398 13.9501 24.3361 14.0087L26.0743 15.0673C26.8057 14.4066 27.6464 13.894 28.5544 13.5553V11.4384C28.5544 11.321 28.5923 11.2071 28.6618 11.1155C28.7314 11.0238 28.8285 10.9598 28.9371 10.9341C30.364 10.5962 31.8964 10.5788 33.3952 10.9338C33.6193 10.9869 33.779 11.1962 33.779 11.4384V13.5552C34.687 13.8939 35.5277 14.4065 36.2591 15.0672L37.9972 14.0087C38.0936 13.95 38.2061 13.9277 38.3161 13.9453C38.4261 13.9629 38.5271 14.0195 38.6027 14.1057C39.6116 15.2568 40.3831 16.6426 40.8349 18.1767C40.903 18.4076 40.8108 18.6577 40.6121 18.7786L38.8726 19.8373C39.0473 20.8361 39.0473 21.86 38.8726 22.8588V22.8588ZM34.4321 21.3481C34.4321 19.4495 32.9672 17.9048 31.1667 17.9048C29.3661 17.9048 27.9013 19.4495 27.9013 21.3481C27.9013 23.2466 29.3661 24.7913 31.1667 24.7913C32.9672 24.7913 34.4321 23.2466 34.4321 21.3481Z" fill="#339C83"/>
<path d="M51.9444 41.6385C54.8014 41.6385 57.1129 39.1402 57.1129 36.0867L57.1389 5.5518C57.1389 2.49831 54.8014 0 51.9444 0H10.3889C7.53194 0 5.19444 2.49831 5.19444 5.5518V36.0867C5.19444 39.1402 7.53194 41.6385 10.3889 41.6385H0C0 44.692 2.3375 47.1903 5.19444 47.1903H57.1389C59.9958 47.1903 62.3333 44.692 62.3333 41.6385H51.9444ZM10.3889 5.5518H51.9444V36.0867H10.3889V5.5518ZM31.1667 44.4144C29.7382 44.4144 28.5694 43.1653 28.5694 41.6385C28.5694 40.1118 29.7382 38.8626 31.1667 38.8626C32.5951 38.8626 33.7639 40.1118 33.7639 41.6385C33.7639 43.1653 32.5951 44.4144 31.1667 44.4144Z" fill="#339C83"/>
</svg>
