<svg width="30" height="30" viewBox="0 0 30 30" fill="none" xmlns="http://www.w3.org/2000/svg">
<path d="M27.5 0H2.5C1.1215 0 0 1.1215 0 2.5V18V20C0 21.3785 1.1215 22.5 2.5 22.5H10.901L10.0825 27H8.118C7.546 27 7.032 27.318 6.776 27.829C6.5415 28.2975 6.5665 28.843 6.8415 29.2885C7.117 29.734 7.594 30 8.118 30H21.8815C22.4055 30 22.8825 29.734 23.158 29.2885C23.433 28.843 23.458 28.2975 23.2235 27.829C22.968 27.318 22.4535 27 21.882 27H19.9175L19.099 22.5H27.5C28.8785 22.5 30 21.3785 30 20V18V2.5C30 1.1215 28.8785 0 27.5 0ZM19.5 28H21.882C22.073 28 22.2445 28.106 22.3295 28.2765C22.4425 28.5015 22.352 28.6915 22.3075 28.763C22.263 28.834 22.134 29 21.882 29H8.118C7.866 29 7.7365 28.834 7.6925 28.7625C7.648 28.691 7.5575 28.5015 7.6705 28.276C7.756 28.106 7.927 28 8.118 28H10.5H14.5C14.7765 28 15 27.7765 15 27.5C15 27.2235 14.7765 27 14.5 27H11.099L11.9175 22.5H18.0825L18.901 27H17.5C17.2235 27 17 27.2235 17 27.5C17 27.7765 17.2235 28 17.5 28H19.5ZM29 20C29 20.827 28.327 21.5 27.5 21.5H18.5H11.5H2.5C1.673 21.5 1 20.827 1 20V18.5H29V20ZM29 17.5H1V2.5C1 1.673 1.673 1 2.5 1H27.5C28.327 1 29 1.673 29 2.5V17.5Z" fill="#3B3D4B"/>
<path d="M16 19.5H14C13.7235 19.5 13.5 19.7235 13.5 20C13.5 20.2765 13.7235 20.5 14 20.5H16C16.2765 20.5 16.5 20.2765 16.5 20C16.5 19.7235 16.2765 19.5 16 19.5Z" fill="#3B3D4B"/>
<path d="M24 14.5H22.938C23.3055 13.537 23.5 12.5325 23.5 11.5C23.5 6.813 19.687 3 15 3C10.313 3 6.5 6.813 6.5 11.5C6.5 12.5325 6.6945 13.537 7.062 14.5H6C5.7235 14.5 5.5 14.7235 5.5 15C5.5 15.2765 5.7235 15.5 6 15.5H7.8145H8H10.4645H19.536H22H22.1855H24C24.2765 15.5 24.5 15.2765 24.5 15C24.5 14.7235 24.2765 14.5 24 14.5ZM15.871 13.9895C15.8695 13.9925 15.8675 13.996 15.866 13.9985C15.847 14.031 15.8235 14.06 15.801 14.0905C15.7825 14.1155 15.765 14.1415 15.7445 14.164C15.7205 14.191 15.693 14.215 15.666 14.2395C15.6445 14.2585 15.624 14.279 15.6015 14.296C15.5745 14.3165 15.545 14.3335 15.516 14.351C15.489 14.3675 15.462 14.3845 15.4335 14.398C15.406 14.4115 15.3765 14.4215 15.3475 14.432C15.315 14.444 15.283 14.4565 15.25 14.4655C15.219 14.4735 15.187 14.4775 15.155 14.4825C15.122 14.4875 15.0895 14.4945 15.056 14.496C15.025 14.4975 14.9945 14.495 14.9635 14.494C14.929 14.493 14.8945 14.493 14.86 14.4885C14.835 14.485 14.811 14.4775 14.7865 14.472C14.747 14.4635 14.7075 14.4555 14.6685 14.442C14.648 14.435 14.6285 14.424 14.6085 14.4155C14.5685 14.3985 14.528 14.381 14.4895 14.358C14.467 14.3445 14.446 14.3275 14.424 14.312C14.392 14.289 14.3595 14.2665 14.331 14.2405C14.3085 14.22 14.2885 14.197 14.268 14.1745C14.244 14.148 14.219 14.1225 14.198 14.094C14.182 14.0725 14.169 14.049 14.155 14.0265C14.1345 13.9935 14.1135 13.9605 14.097 13.9255C14.087 13.9045 14.08 13.882 14.0715 13.86C14.057 13.822 14.042 13.7835 14.032 13.744C14.026 13.7195 14.023 13.694 14.019 13.669C14.0125 13.631 14.005 13.593 14.003 13.554C14.0015 13.527 14.004 13.5005 14.005 13.4735C14.006 13.4355 14.006 13.397 14.0115 13.359C14.0145 13.336 14.0215 13.314 14.0265 13.2915C14.0355 13.25 14.044 13.209 14.058 13.1685C14.065 13.148 14.076 13.1285 14.0845 13.1085C14.1015 13.0685 14.119 13.029 14.1415 12.9905C14.165 12.9505 14.1925 12.913 14.222 12.876C14.2335 12.8615 14.2495 12.8435 14.2635 12.8275C14.436 12.6385 14.6685 12.5225 14.925 12.503C14.9505 12.501 14.9765 12.5 15.002 12.5C15.241 12.5 15.4695 12.5845 15.6525 12.7415C15.8545 12.916 15.9775 13.1585 15.9975 13.4245C16.0125 13.6285 15.965 13.823 15.871 13.9895ZM16.304 11.9835C16.0695 11.7815 15.796 11.647 15.505 11.5715C16.233 10.8745 17.126 10.05 17.8695 9.378C17.4875 10.309 17.019 11.429 16.6245 12.343C16.5315 12.213 16.428 12.09 16.304 11.9835ZM21.866 14.5H20.3865C20.789 13.648 21 12.7125 21 11.75C21 11.102 20.9055 10.464 20.7185 9.8525C20.6375 9.5885 20.359 9.439 20.094 9.521C19.8305 9.6015 19.6815 9.8815 19.7625 10.1455C19.92 10.661 20 11.201 20 11.75C20 12.7275 19.744 13.673 19.258 14.5H16.73C16.799 14.381 16.8555 14.255 16.899 14.123C17.562 12.663 19.6775 7.914 19.5485 7.5215C19.5025 7.3815 19.397 7.2685 19.2605 7.2135C18.911 7.0695 18.8895 7.063 16.193 9.5515C15.228 10.442 14.082 11.527 13.553 12.1295C13.5305 12.153 13.5045 12.1715 13.483 12.1965C13.4585 12.225 13.442 12.258 13.419 12.2875C13.3705 12.3485 13.3235 12.4075 13.297 12.451C13.2905 12.4615 13.2875 12.473 13.281 12.4835C13.2385 12.5545 13.2065 12.6295 13.174 12.705C13.1545 12.7505 13.1305 12.794 13.114 12.8405C13.0875 12.916 13.072 12.994 13.0545 13.072C13.0435 13.1215 13.0285 13.1705 13.0215 13.2205C13.0115 13.2915 13.012 13.3635 13.01 13.436C13.008 13.4945 13.003 13.553 13.006 13.6115C13.0065 13.6245 13.004 13.6375 13.005 13.6505C13.0095 13.711 13.026 13.7685 13.036 13.8275C13.045 13.882 13.051 13.937 13.0645 13.9905C13.084 14.0685 13.113 14.142 13.1415 14.2165C13.159 14.262 13.1735 14.308 13.194 14.3525C13.218 14.4035 13.247 14.4515 13.2755 14.5H10.7415C10.256 13.673 10 12.7275 10 11.75C10 11.267 10.0625 10.789 10.185 10.329C10.2565 10.0625 10.098 9.7885 9.831 9.717C9.5685 9.645 9.2905 9.804 9.219 10.071C9.0735 10.6145 9 11.1795 9 11.75C9 12.7125 9.211 13.648 9.6135 14.5H8.134C7.713 13.544 7.5 12.536 7.5 11.5C7.5 7.3645 10.8645 4 15 4C19.1355 4 22.5 7.3645 22.5 11.5C22.5 12.536 22.287 13.544 21.866 14.5Z" fill="#3B3D4B"/>
<path d="M17.19 5.9295C15.4945 5.2365 13.508 5.4015 11.9365 6.3745C11.7015 6.52 11.6295 6.828 11.7745 7.063C11.869 7.216 12.033 7.3 12.2005 7.3C12.2905 7.3 12.381 7.276 12.463 7.2255C13.765 6.419 15.41 6.2825 16.812 6.856C17.0665 6.9605 17.3595 6.838 17.464 6.582C17.5685 6.326 17.446 6.034 17.19 5.9295Z" fill="#3B3D4B"/>
</svg>
