<svg width="40" height="40" viewBox="0 0 40 40" fill="none" xmlns="http://www.w3.org/2000/svg">
<g clip-path="url(#clip0)">
<path d="M38.0756 6.18909C37.2334 3.06909 30.9651 0 20 0C9.0349 0 2.76581 3.06909 1.92436 6.18909C1.86327 6.296 1.81818 6.41309 1.81818 6.54545V6.90909V15.2727V15.6364V16V24V24.3636V24.7273V33.4545C1.81818 33.5724 1.84945 33.6836 1.90327 33.7825C2.76218 37.3425 10.4465 40 20 40C29.5316 40 37.2036 37.3535 38.0909 33.8065C38.1491 33.7025 38.1818 33.5825 38.1818 33.4545V24.7273V24.3636V24V16V15.6364V15.2727V6.90909V6.54545C38.1818 6.41309 38.1367 6.296 38.0756 6.18909ZM36.6698 24.7164C36.6494 24.8044 36.6211 24.8916 36.5854 24.9804C36.5564 25.0524 36.5207 25.1244 36.4814 25.1964C36.4327 25.2858 36.3782 25.3753 36.3134 25.4647C36.2654 25.5324 36.2109 25.5993 36.1542 25.6662C36.0734 25.7615 35.9876 25.8567 35.8902 25.9513C35.8313 26.0087 35.7665 26.0655 35.7011 26.1229C35.5818 26.2269 35.4574 26.3302 35.3185 26.4327C35.2589 26.4771 35.1949 26.52 35.1316 26.5636C34.9673 26.6771 34.7956 26.7898 34.6073 26.9004C34.5578 26.9302 34.5047 26.9585 34.4531 26.9876C34.2364 27.1098 34.0102 27.2313 33.7658 27.3491C33.7345 27.3644 33.7018 27.3789 33.6698 27.3935C33.3971 27.5222 33.112 27.6487 32.8073 27.7709C32.7985 27.7745 32.7898 27.7775 32.7811 27.7811C31.1294 28.4407 29.0167 28.9956 26.5549 29.3593C26.5425 29.3607 26.5302 29.3622 26.5178 29.3644C26.0393 29.4349 25.5484 29.4974 25.0444 29.5527C24.9622 29.5614 24.8756 29.5673 24.7927 29.576C24.3527 29.6218 23.9076 29.664 23.4494 29.6975C23.24 29.7127 23.0204 29.72 22.8073 29.7331C22.4625 29.7535 22.1214 29.776 21.768 29.7884C21.1905 29.8065 20.6014 29.8182 20 29.8182C19.3985 29.8182 18.8094 29.8065 18.2313 29.7862C17.8778 29.7738 17.5367 29.7505 17.192 29.7309C16.9789 29.7185 16.7593 29.7105 16.5498 29.6953C16.0916 29.6618 15.6465 29.6196 15.2065 29.5738C15.1236 29.5651 15.0371 29.5593 14.9549 29.5505C14.4509 29.4953 13.96 29.432 13.4814 29.3622C13.4691 29.3607 13.4567 29.3593 13.4444 29.3571C10.9825 28.9935 8.86981 28.4385 7.21818 27.7789C7.20945 27.776 7.20072 27.7724 7.19199 27.7687C6.88727 27.6465 6.60145 27.52 6.32945 27.3913C6.29818 27.376 6.26472 27.3615 6.23345 27.3469C5.98908 27.2291 5.7629 27.1084 5.54618 26.9855C5.49527 26.9564 5.44145 26.928 5.39199 26.8982C5.20363 26.7876 5.03199 26.6749 4.86763 26.5615C4.80508 26.5178 4.74036 26.4749 4.68072 26.4305C4.54181 26.328 4.41745 26.2247 4.29818 26.1207C4.23345 26.064 4.16799 26.0073 4.10909 25.9491C4.01163 25.8545 3.92581 25.76 3.84509 25.664C3.78836 25.5971 3.73381 25.5302 3.68581 25.4625C3.62181 25.3731 3.56727 25.2836 3.51781 25.1942C3.47854 25.1222 3.44363 25.0502 3.41381 24.9782C3.37818 24.8902 3.34981 24.8022 3.32945 24.7142C3.30254 24.5985 3.27272 24.4807 3.27272 24.3636C3.27272 24.2815 3.28218 24.1993 3.29527 24.1178C3.31345 24.008 3.30327 23.8982 3.27272 23.7942V18.3949C3.29309 18.4138 3.31854 18.432 3.33963 18.4509C3.49818 18.5905 3.65963 18.7295 3.84145 18.8633C6.58108 20.9353 12.0596 22.5455 20 22.5455C27.9069 22.5455 33.3716 20.9484 36.1229 18.8887C36.3425 18.7287 36.5404 18.5636 36.7265 18.3956L36.7273 18.3949V23.7942C36.6967 23.8982 36.6865 24.008 36.7047 24.1178C36.7185 24.1993 36.7273 24.2815 36.7273 24.3636C36.7273 24.4807 36.6974 24.5985 36.6698 24.7164ZM36.7273 9.66764V15.0669C36.6967 15.1709 36.6865 15.2807 36.7047 15.3905C36.7185 15.472 36.7273 15.5542 36.7273 15.6364C36.7273 15.7535 36.6974 15.8713 36.6698 15.9891C36.6494 16.0771 36.6211 16.1644 36.5854 16.2531C36.5564 16.3251 36.5207 16.3971 36.4814 16.4691C36.4327 16.5585 36.3782 16.648 36.3134 16.7375C36.2654 16.8051 36.2109 16.872 36.1542 16.9389C36.0734 17.0342 35.9876 17.1295 35.8902 17.224C35.8313 17.2815 35.7665 17.3382 35.7011 17.3956C35.5818 17.4996 35.4574 17.6029 35.3185 17.7055C35.2589 17.7498 35.1949 17.7927 35.1316 17.8364C34.9673 17.9498 34.7956 18.0625 34.6073 18.1731C34.5578 18.2029 34.5047 18.2313 34.4531 18.2604C34.2364 18.3825 34.0102 18.504 33.7658 18.6218C33.7345 18.6371 33.7018 18.6516 33.6698 18.6662C33.3971 18.7949 33.112 18.9215 32.8073 19.0436C32.7985 19.0473 32.7898 19.0502 32.7811 19.0538C31.1294 19.7135 29.0167 20.2684 26.5549 20.632C26.5425 20.6335 26.5302 20.6349 26.5178 20.6371C26.0393 20.7076 25.5484 20.7702 25.0444 20.8255C24.9622 20.8342 24.8756 20.84 24.7927 20.8487C24.3527 20.8945 23.9076 20.9367 23.4494 20.9702C23.24 20.9855 23.0204 20.9927 22.8073 21.0058C22.4625 21.0262 22.1214 21.0487 21.768 21.0611C21.1905 21.0793 20.6014 21.0909 20 21.0909C19.3985 21.0909 18.8094 21.0793 18.2313 21.0589C17.8778 21.0465 17.5367 21.0233 17.192 21.0036C16.9789 20.9913 16.7593 20.9833 16.5498 20.968C16.0916 20.9345 15.6465 20.8924 15.2065 20.8465C15.1236 20.8378 15.0371 20.832 14.9549 20.8233C14.4509 20.768 13.96 20.7047 13.4814 20.6349C13.4691 20.6335 13.4567 20.632 13.4444 20.6298C10.9825 20.2662 8.86981 19.7113 7.21818 19.0516C7.20945 19.0487 7.20072 19.0451 7.19199 19.0415C6.88727 18.9193 6.60145 18.7927 6.32945 18.664C6.29818 18.6487 6.26472 18.6342 6.23345 18.6196C5.98908 18.5018 5.7629 18.3811 5.54618 18.2582C5.49527 18.2291 5.44145 18.2007 5.39199 18.1709C5.20363 18.0604 5.03199 17.9476 4.86763 17.8342C4.80508 17.7905 4.74036 17.7476 4.68072 17.7033C4.54181 17.6007 4.41745 17.4975 4.29818 17.3935C4.23345 17.3367 4.16799 17.28 4.10909 17.2218C4.01163 17.1273 3.92581 17.0327 3.84509 16.9367C3.78836 16.8698 3.73381 16.8029 3.68581 16.7353C3.62181 16.6458 3.56727 16.5564 3.51781 16.4669C3.47854 16.3949 3.44363 16.3229 3.41381 16.2509C3.37818 16.1629 3.34981 16.0749 3.32945 15.9869C3.30254 15.8713 3.27272 15.7535 3.27272 15.6364C3.27272 15.5542 3.28218 15.472 3.29527 15.3905C3.31345 15.2807 3.30327 15.1709 3.27272 15.0669V9.66764C3.35999 9.74691 3.45963 9.82473 3.55418 9.90327C3.60654 9.94691 3.65527 9.99054 3.71054 10.0342C3.92872 10.2058 4.16436 10.3753 4.41963 10.5404C4.47272 10.5745 4.53236 10.608 4.58763 10.6422C4.80145 10.7753 5.02763 10.9055 5.26545 11.0335C5.35345 11.0807 5.44145 11.1273 5.53236 11.1738C5.79781 11.3091 6.07636 11.4407 6.36945 11.568C6.41745 11.5891 6.46108 11.6109 6.50981 11.6313C6.8509 11.776 7.21308 11.9142 7.58981 12.048C7.69381 12.0851 7.8029 12.12 7.90981 12.1564C8.20945 12.2575 8.51927 12.3542 8.83999 12.448C8.95563 12.4815 9.06908 12.5164 9.18763 12.5484C9.61308 12.6662 10.0524 12.7782 10.5134 12.8815C10.5767 12.896 10.6451 12.9076 10.7091 12.9215C11.1156 13.0102 11.5374 13.0924 11.9709 13.1695C12.1178 13.1956 12.2669 13.2204 12.4167 13.2451C12.8291 13.3127 13.2538 13.3745 13.6894 13.4313C13.8014 13.4458 13.9084 13.4625 14.0218 13.4764C14.5629 13.5418 15.1229 13.5978 15.6982 13.6458C15.84 13.6575 15.9876 13.6662 16.1316 13.6764C16.592 13.7098 17.0625 13.7375 17.544 13.7593C17.7193 13.7673 17.8938 13.7753 18.0727 13.7818C18.6996 13.8029 19.3382 13.8182 20 13.8182C20.6618 13.8182 21.3004 13.8029 21.9273 13.7818C22.1054 13.7753 22.28 13.7673 22.456 13.7593C22.9374 13.7375 23.408 13.7098 23.8684 13.6764C24.0124 13.6655 24.1593 13.6575 24.3018 13.6458C24.8771 13.5985 25.4371 13.5418 25.9782 13.4764C26.0916 13.4625 26.1985 13.4458 26.3105 13.4313C26.7462 13.3745 27.1702 13.3127 27.5833 13.2451C27.7331 13.2204 27.8822 13.1956 28.0291 13.1695C28.4625 13.0924 28.8844 13.0102 29.2909 12.9215C29.3549 12.9076 29.4233 12.8953 29.4865 12.8815C29.9476 12.7782 30.3869 12.6655 30.8124 12.5484C30.9309 12.5156 31.0444 12.4815 31.16 12.448C31.4807 12.3542 31.7905 12.2575 32.0902 12.1564C32.1971 12.12 32.3062 12.0851 32.4102 12.048C32.7869 11.9142 33.1498 11.776 33.4902 11.6313C33.5389 11.6109 33.5825 11.5891 33.6305 11.568C33.9236 11.44 34.2022 11.3091 34.4676 11.1738C34.5585 11.1273 34.6473 11.0807 34.7345 11.0335C34.9724 10.9062 35.1985 10.776 35.4124 10.6422C35.4676 10.608 35.5273 10.5745 35.5804 10.5404C35.8356 10.3753 36.0713 10.2065 36.2894 10.0342C36.344 9.99054 36.3927 9.94691 36.4458 9.90327C36.5404 9.82473 36.64 9.74691 36.7273 9.66764ZM20 1.45455C29.8582 1.45455 36.7273 4.32873 36.7273 6.90909C36.7273 9.48945 29.8582 12.3636 20 12.3636C10.1418 12.3636 3.27272 9.48945 3.27272 6.90909C3.27272 4.32873 10.1418 1.45455 20 1.45455ZM36.7273 33.2385C36.7171 33.2705 36.7098 33.3033 36.704 33.3367C36.2916 35.8524 29.4807 38.5454 20 38.5454C10.5193 38.5454 3.70836 35.8524 3.29599 33.3367C3.29018 33.304 3.28218 33.272 3.27272 33.2415V27.1222C3.29309 27.1411 3.31854 27.1593 3.33963 27.1782C3.49818 27.3178 3.65963 27.4567 3.84145 27.5905C6.58108 29.6625 12.0596 31.2727 20 31.2727C27.9069 31.2727 33.3716 29.6756 36.1229 27.616C36.3425 27.456 36.5404 27.2909 36.7265 27.1229L36.7273 27.1222V33.2385V33.2385Z" fill="#91CCF6"/>
</g>
<defs>
<clipPath id="clip0">
<rect width="40" height="40" fill="white"/>
</clipPath>
</defs>
</svg>
