<svg width="30" height="30" viewBox="0 0 30 30" fill="none" xmlns="http://www.w3.org/2000/svg">
<g clip-path="url(#clip0)">
<path d="M11.5005 16.9997H1.49947C0.67248 16.9997 0 17.6727 0 18.4992V25.5002C0 26.3268 0.67248 26.9997 1.49947 26.9997H11.5005C12.3275 26.9997 13 26.3267 13 25.5002V18.4992C13 17.6727 12.3275 16.9997 11.5005 16.9997ZM12 25.5002C12 25.7757 11.776 25.9997 11.5005 25.9997H1.49947C1.22396 25.9997 0.999961 25.7757 0.999961 25.5002V18.4992C0.999961 18.2237 1.22396 17.9997 1.49947 17.9997H11.5005C11.776 17.9997 12 18.2237 12 18.4992V25.5002Z" fill="#3B3D4B"/>
<path d="M12.5 23.9998H0.499981C0.224004 23.9998 0 24.2232 0 24.4997V25.5002C0 26.3268 0.67248 26.9997 1.49947 26.9997H11.5005C12.3275 26.9997 13 26.3267 13 25.5002V24.4997C13 24.2232 12.776 23.9998 12.5 23.9998ZM12 25.5002C12 25.7757 11.776 25.9997 11.5005 25.9997H1.49947C1.22396 25.9997 0.999961 25.7757 0.999961 25.5002V24.9997H12V25.5002Z" fill="#3B3D4B"/>
<path d="M7.99998 25.9998H4.99998C4.724 25.9998 4.5 26.2232 4.5 26.4997V29.4997C4.5 29.7762 4.724 29.9997 4.99998 29.9997H7.99998C8.27596 29.9997 8.49996 29.7762 8.49996 29.4997V26.4997C8.50002 26.2232 8.27602 25.9998 7.99998 25.9998ZM7.5 28.9998H5.50002V26.9998H7.5V28.9998Z" fill="#3B3D4B"/>
<path d="M9.49998 28.9998H3.49998C3.224 28.9998 3 29.2232 3 29.4997C3 29.7762 3.224 29.9997 3.49998 29.9997H9.49998C9.77596 29.9997 9.99996 29.7762 9.99996 29.4997C10 29.2232 9.77601 28.9998 9.49998 28.9998Z" fill="#3B3D4B"/>
<path d="M28.5005 16.9997H18.4995C17.6725 16.9997 17 17.6727 17 18.4992V25.5002C17 26.3267 17.6725 26.9997 18.4995 26.9997H28.5005C29.3275 26.9997 30 26.3266 30 25.5002V18.4992C30 17.6727 29.3275 16.9997 28.5005 16.9997ZM28.9999 25.5002C28.9999 25.7757 28.7759 25.9997 28.5004 25.9997H18.4995C18.224 25.9997 18 25.7757 18 25.5002V18.4992C18 18.2237 18.224 17.9997 18.4995 17.9997H28.5005C28.776 17.9997 29 18.2237 29 18.4992V25.5002H28.9999Z" fill="#3B3D4B"/>
<path d="M29.5 23.9998H17.5C17.224 23.9998 17 24.2232 17 24.4997V25.5002C17 26.3268 17.6725 26.9997 18.4995 26.9997H28.5005C29.3275 26.9997 30 26.3267 30 25.5002V24.4997C30 24.2232 29.776 23.9998 29.5 23.9998ZM28.9999 25.5002C28.9999 25.7757 28.7759 25.9997 28.5004 25.9997H18.4995C18.224 25.9997 18 25.7757 18 25.5002V24.9997H28.9999V25.5002Z" fill="#3B3D4B"/>
<path d="M25 25.9998H22C21.724 25.9998 21.5 26.2232 21.5 26.4997V29.4997C21.5 29.7762 21.724 29.9997 22 29.9997H25C25.276 29.9997 25.5 29.7762 25.5 29.4997V26.4997C25.5 26.2232 25.276 25.9998 25 25.9998ZM24.4999 28.9998H22.5V26.9998H24.4999V28.9998Z" fill="#3B3D4B"/>
<path d="M26.5 28.9998H20.5C20.224 28.9998 20 29.2232 20 29.4997C20 29.7762 20.224 29.9997 20.5 29.9997H26.5C26.776 29.9997 27 29.7762 27 29.4997C27 29.2232 26.776 28.9998 26.5 28.9998Z" fill="#3B3D4B"/>
<path d="M20.0005 0.000549316H9.99947C9.17248 0.000549316 8.5 0.673557 8.5 1.50002V8.50051C8.5 9.32703 9.17248 9.99998 9.99947 9.99998H20.0005C20.8275 9.99998 21.5 9.32697 21.5 8.50051V1.50008C21.5 0.673557 20.8275 0.000549316 20.0005 0.000549316ZM20.5 8.50057C20.5 8.77608 20.276 9.00008 20.0005 9.00008H9.99947C9.72397 9.00008 9.49996 8.77608 9.49996 8.50057V1.50008C9.49996 1.22457 9.72397 1.00057 9.99947 1.00057H20.0005C20.276 1.00057 20.5 1.22457 20.5 1.50008V8.50057Z" fill="#3B3D4B"/>
<path d="M21 6.99976H8.99998C8.724 6.99976 8.5 7.22323 8.5 7.49974V8.50022C8.5 9.32675 9.17248 9.9997 9.99947 9.9997H20.0005C20.8275 9.9997 21.5 9.32669 21.5 8.50022V7.49974C21.5 7.22329 21.276 6.99976 21 6.99976ZM20.5 8.50028C20.5 8.77579 20.276 8.99979 20.0005 8.99979H9.99947C9.72397 8.99979 9.49996 8.77579 9.49996 8.50028V7.99978H20.4999V8.50028H20.5Z" fill="#3B3D4B"/>
<path d="M16.5 8.99976H13.5C13.224 8.99976 13 9.22323 13 9.49974V12.4997C13 12.7762 13.224 12.9997 13.5 12.9997H16.5C16.776 12.9997 17 12.7762 17 12.4997V9.49974C17 9.22323 16.776 8.99976 16.5 8.99976ZM16 11.9998H14V9.99978H16V11.9998Z" fill="#3B3D4B"/>
<path d="M18 11.9998H12C11.724 11.9998 11.5 12.2232 11.5 12.4997C11.5 12.7762 11.724 12.9997 12 12.9997H18C18.276 12.9997 18.5 12.7762 18.5 12.4997C18.5 12.2232 18.276 11.9998 18 11.9998Z" fill="#3B3D4B"/>
<path d="M23.5 14.9998H6.49998C6.224 14.9998 6 15.2233 6 15.4998V17.4998C6 17.7763 6.224 17.9998 6.49998 17.9998C6.77596 17.9998 6.99996 17.7763 6.99996 17.4998V15.9998H23V17.4998C23 17.7763 23.224 17.9998 23.5 17.9998C23.7759 17.9998 23.9999 17.7763 23.9999 17.4998V15.4998C24 15.2233 23.776 14.9998 23.5 14.9998Z" fill="#3B3D4B"/>
<path d="M15 13.4998C14.724 13.4998 14.5 13.7232 14.5 13.9997V15.4997C14.5 15.7762 14.724 15.9997 15 15.9997C15.276 15.9997 15.5 15.7762 15.5 15.4997V13.9997C15.5 13.7232 15.276 13.4998 15 13.4998Z" fill="#3B3D4B"/>
</g>
<defs>
<clipPath id="clip0">
<rect width="30" height="30" fill="white"/>
</clipPath>
</defs>
</svg>
