<svg width="30" height="30" viewBox="0 0 30 30" fill="none" xmlns="http://www.w3.org/2000/svg">
<g clip-path="url(#clip0)">
<path d="M28.4334 22.9825C28.947 22.4575 29.2644 21.74 29.2644 20.9493V15.2883C29.2644 15.0456 29.0677 14.8489 28.825 14.8489C28.5822 14.8489 28.3855 15.0456 28.3855 15.2883V20.9493C28.3855 22.0692 27.4744 22.9802 26.3546 22.9802C25.8833 22.9802 4.16696 22.9802 3.64548 22.9802C2.52569 22.9802 1.61461 22.0692 1.61461 20.9493V5.77293C1.61461 4.65308 2.52569 3.742 3.64548 3.742H26.3546C27.4744 3.742 28.3855 4.65308 28.3855 5.77293V13.2374C28.3855 13.4801 28.5822 13.6768 28.825 13.6768C29.0677 13.6768 29.2644 13.4801 29.2644 13.2374V5.77293C29.2644 4.16839 27.9591 2.86304 26.3545 2.86304H3.64548C2.04094 2.86304 0.735646 4.16839 0.735646 5.77293V20.9493C0.735646 21.74 1.05305 22.4576 1.56662 22.9825C0.69504 23.0282 0 23.7517 0 24.6343V25.4827C0 26.3949 0.742091 27.1369 1.65416 27.1369H28.3458C29.258 27.1369 30.0001 26.3948 30.0001 25.4827V24.6343C30.0001 23.7517 29.305 23.0282 28.4334 22.9825ZM28.3458 26.2579H1.65416C1.22672 26.2579 0.878967 25.9102 0.878967 25.4827V24.6343C0.878967 24.2069 1.22672 23.8591 1.65416 23.8591C1.91748 23.8591 8.98033 23.8591 9.24394 23.8591V24.8379C9.24394 25.2019 9.54008 25.4981 9.90412 25.4981H14.0015C14.2442 25.4981 14.4409 25.3013 14.4409 25.0586C14.4409 24.8159 14.2442 24.6192 14.0015 24.6192H10.123V23.8592H19.8771V24.6192H16.0524C15.8096 24.6192 15.6129 24.8159 15.6129 25.0586C15.6129 25.3013 15.8096 25.4981 16.0524 25.4981H20.0959C20.4599 25.4981 20.7561 25.2019 20.7561 24.8379V23.8592C21.0198 23.8592 28.0828 23.8592 28.3458 23.8592C28.7733 23.8592 29.1211 24.2069 29.1211 24.6344V25.4828H29.1212C29.1211 25.9102 28.7733 26.2579 28.3458 26.2579Z" fill="#3B3D4B"/>
<path d="M26.3545 4.8418C25.4065 4.8418 4.62118 4.8418 3.64547 4.8418C3.16406 4.8418 2.76691 5.20889 2.71916 5.67787C2.716 5.7091 2.71436 5.74086 2.71436 5.77291C2.71436 6.43631 2.71436 20.1598 2.71436 20.9493C2.71436 21.4628 3.13201 21.8804 3.64547 21.8804C3.87844 21.8804 26.1282 21.8804 26.3545 21.8804C26.868 21.8804 27.2857 21.4628 27.2857 20.9493C27.2857 20.1552 27.2857 6.43397 27.2857 5.77291C27.2857 5.25945 26.868 4.8418 26.3545 4.8418ZM6.55249 5.72076H26.3545C26.3784 5.72076 26.4067 5.74901 26.4067 5.77291V7.49329H20.2006L20.1598 7.3042C20.0846 6.95534 19.771 6.70209 19.414 6.70209H17.9882C17.6369 6.70209 17.3282 6.95135 17.2542 7.29477C17.2476 7.32541 17.218 7.46264 17.2114 7.49329H14.2868C14.0159 7.21983 13.7048 6.98346 13.3599 6.78922C12.9059 6.53381 12.3552 6.86293 12.3552 7.37516V7.49329H10.3112V7.37516C10.3112 6.85983 9.75623 6.53627 9.30658 6.78928C8.96251 6.98299 8.65173 7.2193 8.38056 7.49329H6.55249V5.72076ZM12.3553 8.37219V10.8243L11.3333 11.4144L10.3113 10.8243V8.37219H12.3553ZM3.59326 5.77291C3.59326 5.74901 3.62151 5.72076 3.64547 5.72076H5.67358V7.49329H3.59326V5.77291ZM9.57746 21.0014H3.64541C3.62156 21.0015 3.59326 20.9732 3.59326 20.9493V8.37225C4.01151 8.37225 7.27706 8.37225 7.72536 8.37225C7.36448 9.01725 7.17681 9.7597 7.20159 10.5307C7.25198 12.0995 8.12685 13.4424 9.54172 14.1233C9.54172 14.1233 9.54172 14.1233 9.54177 14.1233C9.56375 14.1339 9.5774 14.1552 9.5774 14.1791V21.0014H9.57746ZM12.2101 14.0833V21.0015H11.7724V14.5204C11.7724 14.2778 11.5757 14.081 11.3329 14.081C11.0902 14.081 10.8935 14.2778 10.8935 14.5204V21.0015H10.4565V14.1791C10.4565 13.82 10.2471 13.4871 9.92293 13.3312H9.92299C8.80882 12.7951 8.11994 11.7376 8.08027 10.5025C8.04359 9.3636 8.56718 8.36528 9.43238 7.74905C9.43238 8.3668 9.43238 10.2804 9.43238 10.9432C9.43238 11.1828 9.56123 11.406 9.76877 11.526L10.9968 12.2351C11.2044 12.3548 11.4622 12.3548 11.6697 12.2351L12.898 11.5259C13.1054 11.406 13.2342 11.1828 13.2342 10.9432L13.2342 7.74887C14.1042 8.36716 14.6345 9.37573 14.5842 10.5358C14.5298 11.7884 13.8171 12.845 12.6776 13.3621C12.3934 13.4911 12.21 13.7742 12.2101 14.0833ZM16.7278 18.2477C16.2427 18.4129 15.8924 18.872 15.8924 19.4123V21.0014H13.089V14.1402C14.4873 13.4843 15.395 12.1227 15.4622 10.5739C15.4964 9.78677 15.3097 9.02891 14.9424 8.37225H17.0219L16.697 9.87935C16.6466 10.1135 16.6872 10.3552 16.8115 10.5601L17.2974 11.3602V16.8742C16.9751 16.9265 16.7278 17.206 16.7278 17.5429V18.2477ZM17.4801 21.0015H16.7714V19.4123C16.7714 19.2182 16.9292 19.0604 17.1234 19.0604H17.1674H17.48V21.0015H17.4801ZM19.0538 21.0015H18.359V19.0604H19.0538V21.0015ZM19.8059 18.1813H19.4932H17.9195H17.6069V17.7436H17.7369H19.6752H19.8059V18.1813ZM19.8515 10.0999L19.2995 11.0091C19.2578 11.0778 19.2357 11.1568 19.2357 11.2372V16.8646H18.1763V11.2372C18.1763 11.1568 18.1543 11.0779 18.1125 11.0091L17.5629 10.1039C17.5557 10.092 17.5533 10.0781 17.5563 10.0646L18.0917 7.581H19.3204C19.3431 7.68635 19.7663 9.64966 19.8568 10.0692C19.859 10.0797 19.8572 10.0907 19.8515 10.0999ZM20.6414 21.0015H19.9327V19.0604H20.2454H20.2893C20.4834 19.0604 20.6413 19.2183 20.6413 19.4123V21.0015H20.6414ZM26.4067 20.9493C26.4066 20.9732 26.3784 21.0015 26.3545 21.0015H21.5204V19.4123C21.5204 18.872 21.17 18.413 20.6849 18.2478V17.5428C20.6849 17.2057 20.4374 16.926 20.1146 16.874V11.3602L20.6028 10.556C20.7257 10.3538 20.7657 10.1151 20.7159 9.88386L20.3901 8.37214H26.4066V20.9493H26.4067Z" fill="#3B3D4B"/>
</g>
<defs>
<clipPath id="clip0">
<rect width="30" height="30" fill="white"/>
</clipPath>
</defs>
</svg>
