<svg width="29" height="42" viewBox="0 0 29 42" fill="none" xmlns="http://www.w3.org/2000/svg">
<path d="M14.6355 9.07408C11.7174 9.07408 9.34229 11.4492 9.34229 14.3673C9.34229 17.2854 11.7174 19.6605 14.6355 19.6605C17.5536 19.6605 19.9287 17.2854 19.9287 14.3673C19.9287 11.4492 17.5536 9.07408 14.6355 9.07408ZM14.6355 18.1482C12.5507 18.1482 10.8546 16.4521 10.8546 14.3673C10.8546 12.2825 12.5507 10.5864 14.6355 10.5864C16.7203 10.5864 18.4164 12.2825 18.4164 14.3673C18.4164 16.4521 16.7203 18.1482 14.6355 18.1482Z" fill="#FF5C45"/>
<path d="M24.7552 4.24742C22.0163 1.50857 18.3746 0 14.5015 0C10.6276 0 6.98662 1.50857 4.24776 4.24742C-0.820865 9.3153 -1.45076 18.8506 2.88363 24.6278L14.5015 41.4058L26.1019 24.6512C30.4537 18.8506 29.8238 9.3153 24.7552 4.24742ZM24.8754 23.7673L14.5015 38.7486L4.1109 23.7438C0.179552 18.502 0.7429 9.89074 5.31775 5.31665C7.77077 2.86363 11.0321 1.51235 14.5015 1.51235C17.9708 1.51235 21.2322 2.86363 23.6859 5.31665C28.2608 9.89074 28.8241 18.502 24.8754 23.7673Z" fill="#FF5C45"/>
</svg>
