<svg width="30" height="30" viewBox="0 0 30 30" fill="none" xmlns="http://www.w3.org/2000/svg">
<path d="M28.6469 4.92188H22.5C22.2572 4.92188 22.0605 5.11848 22.0605 5.36133C22.0605 5.60417 22.2572 5.80078 22.5 5.80078H28.6469C28.9085 5.80078 29.1211 6.01341 29.1211 6.27502V23.1976C29.1211 23.4592 28.9085 23.6719 28.6469 23.6719H1.35315C1.09154 23.6719 0.878906 23.4592 0.878906 23.1976V6.27502C0.878906 6.01341 1.09154 5.80078 1.35315 5.80078H11.0083V6.67969H2.19727C1.95442 6.67969 1.75781 6.8763 1.75781 7.11914V18.7305C1.75781 18.9732 1.95442 19.17 2.19727 19.17C2.44011 19.17 2.63672 18.9732 2.63672 18.7305V7.55859H11.0083V9.91608L9.12689 10.8149C8.97675 10.8868 8.87695 11.0419 8.87695 11.2115V18.3783C8.87695 18.5477 8.97423 18.7019 9.12689 18.7749L14.8105 21.4904C14.9336 21.5483 15.0726 21.5453 15.1895 21.4904L18.3847 19.9638C18.6037 19.8592 18.6964 19.5966 18.5918 19.3778C18.4872 19.1588 18.2245 19.0661 18.0057 19.1707L15.4395 20.3968V14.2039L20.2441 11.9085V18.1013L19.5914 18.4131C19.3723 18.5177 19.2796 18.7802 19.3842 18.999C19.4888 19.2181 19.7514 19.3108 19.9702 19.2062L20.8731 18.7749C21.0258 18.7019 21.123 18.5477 21.123 18.3783V11.2115C21.123 11.044 21.0255 10.8879 20.8731 10.8149L18.9917 9.91608V7.55859H27.3633V21.9141H2.63672V20.6055C2.63672 20.3627 2.44011 20.1661 2.19727 20.1661C1.95442 20.1661 1.75781 20.3627 1.75781 20.6055V22.3535C1.75781 22.5964 1.95442 22.793 2.19727 22.793H27.8027C28.0456 22.793 28.2422 22.5964 28.2422 22.3535V7.11914C28.2422 6.8763 28.0456 6.67969 27.8027 6.67969H18.9917V5.80078H20.625C20.8678 5.80078 21.0645 5.60417 21.0645 5.36133C21.0645 5.11848 20.8678 4.92188 20.625 4.92188H18.9917V4.04297H22.9321C23.175 4.04297 23.3716 3.84636 23.3716 3.60352V2.56119C23.8831 2.37968 24.2505 1.89125 24.2505 1.31836C24.2505 0.591431 23.6591 0 22.9321 0C22.2052 0 21.6138 0.591431 21.6138 1.31836C21.6138 1.89125 21.9811 2.37968 22.4927 2.56119V3.16406H18.5522C18.3094 3.16406 18.1128 3.36067 18.1128 3.60352V4.92188H15.4395V2.56119C15.951 2.37968 16.3184 1.89125 16.3184 1.31836C16.3184 0.591431 15.7269 0 15 0C14.2731 0 13.6816 0.591431 13.6816 1.31836C13.6816 1.89125 14.049 2.37968 14.5605 2.56119V4.92188H11.8872V3.60352C11.8872 3.36067 11.6906 3.16406 11.4478 3.16406H7.50732V2.56119C8.01888 2.37968 8.38623 1.89125 8.38623 1.31836C8.38623 0.591431 7.7948 0 7.06787 0C6.34094 0 5.74951 0.591431 5.74951 1.31836C5.74951 1.89125 6.11687 2.37968 6.62842 2.56119V3.60352C6.62842 3.84636 6.82503 4.04297 7.06787 4.04297H11.0083V4.92188H1.35315C0.606995 4.92188 0 5.52887 0 6.27502V23.1976C0 23.9438 0.606995 24.5508 1.35315 24.5508H10.8806C10.7105 26.1628 9.64462 27.1042 9.30862 27.3633H7.44141C6.71448 27.3633 6.12305 27.9547 6.12305 28.6816C6.12305 29.4086 6.71448 30 7.44141 30H22.5586C23.2855 30 23.877 29.4086 23.877 28.6816C23.877 27.9547 23.2855 27.3633 22.5586 27.3633H20.6925C20.3609 27.1051 19.2913 26.1552 19.1199 24.5508H28.6469C29.393 24.5508 30 23.9438 30 23.1976V6.27502C30 5.52887 29.393 4.92188 28.6469 4.92188ZM22.9321 0.878906C23.1745 0.878906 23.3716 1.07597 23.3716 1.31836C23.3716 1.56075 23.1745 1.75781 22.9321 1.75781C22.6897 1.75781 22.4927 1.56075 22.4927 1.31836C22.4927 1.07597 22.6897 0.878906 22.9321 0.878906ZM15 0.878906C15.2424 0.878906 15.4395 1.07597 15.4395 1.31836C15.4395 1.56075 15.2424 1.75781 15 1.75781C14.7576 1.75781 14.5605 1.56075 14.5605 1.31836C14.5605 1.07597 14.7576 0.878906 15 0.878906ZM7.06787 0.878906C7.31026 0.878906 7.50732 1.07597 7.50732 1.31836C7.50732 1.56075 7.31026 1.75781 7.06787 1.75781C6.82549 1.75781 6.62842 1.56075 6.62842 1.31836C6.62842 1.07597 6.82549 0.878906 7.06787 0.878906ZM11.8872 7.55859H14.5605V8.21892L11.8872 9.49631V7.55859ZM19.6642 11.2115L15 13.4397L10.3358 11.2115L15 8.98315L19.6642 11.2115ZM9.75586 11.9085L14.5605 14.2039V20.3968L9.75586 18.1013V11.9085ZM18.1128 9.49631L15.4395 8.21892V7.55859H18.1128V9.49631ZM18.1128 5.80078V6.67969H15.4395V5.80078H18.1128ZM14.5605 5.80078V6.67969H11.8872V5.80078H14.5605ZM22.998 28.6816C22.998 28.924 22.801 29.1211 22.5586 29.1211H7.44141C7.19902 29.1211 7.00195 28.924 7.00195 28.6816C7.00195 28.4393 7.19902 28.2422 7.44141 28.2422H22.5586C22.801 28.2422 22.998 28.4393 22.998 28.6816ZM19.4321 27.3633H10.5679C11.0831 26.7616 11.6547 25.8238 11.7643 24.5508H18.2357C18.3453 25.8238 18.9169 26.7616 19.4321 27.3633Z" fill="#3B3D4B"/>
</svg>
