<svg width="30" height="30" viewBox="0 0 30 30" fill="none" xmlns="http://www.w3.org/2000/svg">
<path d="M0 26.4804H9.67617C11.0477 27.9925 12.7552 29.1551 14.6897 29.8835L14.9994 30L15.309 29.8835C17.2436 29.1551 18.951 27.9925 20.3225 26.4804H29.9986V0H0V26.4804ZM19.9413 24.1395C18.7055 25.9254 17.0019 27.295 14.9994 28.1167C12.9969 27.2951 11.2934 25.9254 10.0574 24.1395C8.75824 22.2622 8.07152 20.0633 8.07152 17.7803V15.0977C9.34529 14.5909 10.3498 13.5864 10.8566 12.3126H19.142C19.6488 13.5864 20.6533 14.5909 21.9271 15.0977V17.7803C21.9271 20.0633 21.2404 22.2622 19.9413 24.1395ZM1.75775 1.75775H28.241V7.03658H1.75775V1.75775ZM1.75775 8.79434H28.241V24.7228H21.6637C22.9876 22.6446 23.6849 20.2552 23.6849 17.7804V13.7675L23.0143 13.6039C21.8528 13.3207 20.9191 12.3871 20.636 11.2256L20.4724 10.5549H9.52646L9.36287 11.2256C9.07963 12.3871 8.14605 13.3208 6.98449 13.6039L6.31388 13.7675V17.7804C6.31388 20.2552 7.01121 22.6447 8.33513 24.7228H1.75775V8.79434Z" fill="#3B3D4B"/>
<path d="M19.809 15.9175C19.5256 15.7109 19.2562 15.4804 19.0081 15.2323C18.7601 14.9843 18.5296 14.7148 18.323 14.4315L18.0597 14.0703H11.9405L11.6772 14.4315C11.4707 14.7148 11.2402 14.9843 10.9921 15.2323C10.744 15.4804 10.4746 15.7109 10.1913 15.9175L9.83008 16.1807V17.7804C9.83008 19.7042 10.4088 21.5572 11.5036 23.1392C12.3108 24.3056 13.3405 25.2519 14.5639 25.9515L15.0002 26.201L15.4364 25.9515C16.6598 25.2519 17.6894 24.3056 18.4967 23.1392C19.5916 21.5572 20.1702 19.7042 20.1702 17.7804V16.1807L19.809 15.9175ZM18.4125 17.7804C18.4124 19.3451 17.9417 20.8523 17.0514 22.139C16.4931 22.9457 15.8046 23.6226 15.0001 24.1566C14.1957 23.6226 13.5072 22.9457 12.9488 22.139C12.0585 20.8523 11.5878 19.3451 11.5878 17.7804V17.0595C11.8134 16.8758 12.03 16.6803 12.235 16.4752C12.44 16.2702 12.6355 16.0536 12.8192 15.828H17.1811C17.3648 16.0536 17.5603 16.2702 17.7653 16.4752C17.9703 16.6803 18.187 16.8758 18.4125 17.0595V17.7804H18.4125Z" fill="#3B3D4B"/>
<path d="M5.27748 3.51843H3.51855V5.27619H5.27748V3.51843Z" fill="#3B3D4B"/>
<path d="M8.79506 3.51843H7.03613V5.27619H8.79506V3.51843Z" fill="#3B3D4B"/>
<path d="M12.3136 3.51843H10.5547V5.27619H12.3136V3.51843Z" fill="#3B3D4B"/>
</svg>
