<svg width="30" height="30" viewBox="0 0 30 30" fill="none" xmlns="http://www.w3.org/2000/svg">
<path d="M20 24.5C20 24.224 19.7765 24 19.5 24H6.49998C6.224 24 6 24.224 6 24.5C6 24.776 6.224 25 6.49998 25H19.5C19.7765 25 20 24.776 20 24.5Z" fill="#3B3D4B"/>
<path d="M11 12C11 14.2055 12.7945 16 15 16C17.2055 16 19 14.2055 19 12C19 9.79449 17.2055 8 15 8C12.7945 8 11 9.79449 11 12ZM18 12C18 13.6545 16.6545 15 15 15C13.3455 15 12 13.6545 12 12C12 10.3455 13.3455 9.00002 15 9.00002C16.6545 9.00002 18 10.3455 18 12Z" fill="#3B3D4B"/>
<path d="M2.50004 20C2.77602 20 3.00002 19.776 3.00002 19.5V2.50002C3.00002 1.771 3.771 1.00002 4.50002 1.00002H8V3.50004C8 3.63252 8.0525 3.75955 8.14648 3.85354L9.29299 5.00004L8.14654 6.14648C8.05256 6.24 8.00006 6.3675 8.00006 6.49998V12C8.00006 15.86 11.14 19 15.0001 19C18.8601 19 22 15.86 22 12V0.49998C22 0.224004 21.7766 0 21.5001 0H10.5C10.224 0 10 0.224004 10 0.49998C10 0.775957 10.224 0.999961 10.5 0.999961H21V12C21 15.3085 18.3085 18 15 18C11.6915 18 9.00002 15.3085 9.00002 12V6.70699L10.3535 5.35348C10.5491 5.15795 10.5491 4.84195 10.3535 4.64648L9.00002 3.29297V0.49998C9.00002 0.224004 8.74502 0 8.46904 0H4.50002C3.215 0 2 1.215 2 2.50002V19.5C2 19.776 2.224 20 2.50004 20Z" fill="#3B3D4B"/>
<path d="M18.5 3.99996C18.7765 3.99996 18.9999 3.77596 18.9999 3.49998C18.9999 3.224 18.7765 3 18.5 3H16.5C16.2235 3 16 3.224 16 3.49998C16 3.77596 16.2235 3.99996 16.5 3.99996H18.5Z" fill="#3B3D4B"/>
<path d="M19.5152 27C19.7912 27 20.0152 26.776 20.0152 26.5C20.0152 26.224 19.7912 26 19.5152 26H19.5097C19.2342 26 19.0127 26.224 19.0127 26.5C19.0127 26.776 19.2392 27 19.5152 27Z" fill="#3B3D4B"/>
<path d="M21 25.5C21 26.327 21.673 27 22.5 27C23.327 27 24 26.327 24 25.5C24 24.673 23.327 24 22.5 24C21.673 24 21 24.673 21 25.5ZM23 25.5C23 25.7755 22.776 26 22.5 26C22.224 26 22 25.7755 22 25.5C22 25.2245 22.224 25 22.5 25C22.776 25 23 25.2245 23 25.5Z" fill="#3B3D4B"/>
<path d="M6.49998 26C6.224 26 6 26.224 6 26.5C6 26.776 6.224 27 6.49998 27H8.49996C8.77593 27 8.99994 26.776 8.99994 26.5C8.99994 26.224 8.77593 26 8.49996 26H6.49998Z" fill="#3B3D4B"/>
<path d="M25.5 0H23.5C23.2235 0 23 0.224004 23 0.49998C23 0.775957 23.2235 0.999961 23.5 0.999961H25.5C26.229 0.999961 27 1.77094 27 2.49996V27.5C27 28.229 26.229 29 25.5 29H4.49996C3.77094 29 2.99996 28.229 2.99996 27.5V22H25.5C25.7765 22 25.9999 21.776 25.9999 21.5C25.9999 21.224 25.7765 21 25.5 21H2.49998C2.224 21 2 21.224 2 21.5V27.5C1.99994 28.785 3.21494 30 4.49996 30H25.5C26.785 30 28 28.785 28 27.5V2.50002C28 1.215 26.785 0 25.5 0Z" fill="#3B3D4B"/>
</svg>
