<svg width="35" height="35" viewBox="0 0 35 35" fill="none" xmlns="http://www.w3.org/2000/svg">
<g clip-path="url(#clip0)">
<rect width="35" height="35" fill="white"/>
<path d="M28.13 35C26.6738 35 24.915 34.635 22.9809 33.9052C18.7405 32.3065 14.127 29.1468 9.99021 25.0101C5.85227 20.8721 2.69261 16.2574 1.09276 12.017C-0.361109 8.16164 -0.36464 4.99726 1.08452 3.54928C1.29289 3.34091 1.50479 3.11724 1.72375 2.8865C3.04577 1.4962 4.53967 -0.0683265 6.51976 0.0023069C7.88416 0.0588136 9.20618 0.906414 10.56 2.59102C14.5602 7.56596 12.7567 9.33886 10.6695 11.3943L10.301 11.7592C9.9596 12.1006 9.31448 13.6816 15.316 19.6831C17.2749 21.642 18.9453 23.0759 20.2803 23.9435C21.1208 24.4897 22.6242 25.3161 23.241 24.6993L23.6118 24.3249C25.6649 22.2424 27.4378 20.4448 32.4092 24.4415C34.0938 25.7953 34.9403 27.1161 34.9968 28.4829C35.078 30.4618 33.5017 31.9592 32.1102 33.28C31.8807 33.499 31.657 33.7109 31.4486 33.9181C30.7293 34.6386 29.5792 35 28.13 35ZM6.37849 1.17718C4.97171 1.17718 3.70149 2.5145 2.57724 3.69761C2.35121 3.93541 2.13225 4.16614 1.91682 4.38158C0.837304 5.45991 0.946786 8.29349 2.19464 11.6027C3.7368 15.69 6.80111 20.1564 10.8237 24.1789C14.8451 28.1992 19.3091 31.2635 23.3976 32.8044C26.7068 34.0547 29.5403 34.1606 30.6175 33.0835C30.8329 32.868 31.0637 32.6491 31.3015 32.4242C32.5105 31.2752 33.8819 29.9732 33.8219 28.5288C33.7807 27.5364 33.0579 26.4686 31.6735 25.3562C27.5308 22.0246 26.3724 23.2007 24.4512 25.149L24.0745 25.5292C23.1563 26.4486 21.6647 26.245 19.6399 24.9288C18.2355 24.0153 16.5002 22.5296 14.4848 20.5131C9.50401 15.5334 7.91123 12.4856 9.46988 10.9234L9.84541 10.5526C11.7984 8.63135 12.9768 7.47179 9.6441 3.32678C8.52928 1.94355 7.46271 1.22073 6.47031 1.17835C6.4397 1.17718 6.4091 1.17718 6.37849 1.17718Z" fill="#D80027"/>
</g>
<defs>
<clipPath id="clip0">
<rect width="35" height="35" fill="white"/>
</clipPath>
</defs>
</svg>
