<svg width="30" height="30" viewBox="0 0 30 30" fill="none" xmlns="http://www.w3.org/2000/svg">
<g clip-path="url(#clip0)">
<path d="M27.8868 6.34161H22.2861V3.18083C22.2861 2.82956 22.0013 2.54468 21.65 2.54468H8.35002C7.99875 2.54468 7.71387 2.82956 7.71387 3.18083V6.34167H2.11324C0.947988 6.34161 0 7.28966 0 8.45491V18.5821C0 19.7473 0.947988 20.6954 2.11324 20.6954H7.71387V26.8193C7.71387 27.1706 7.99875 27.4555 8.35002 27.4555H21.65C22.0013 27.4555 22.2862 27.1706 22.2862 26.8193V20.6954H27.8868C29.052 20.6954 30.0001 19.7474 30.0001 18.5821V8.45491C30 7.28966 29.052 6.34161 27.8868 6.34161ZM22.2861 7.61386H23.8035V9.39423H22.2861V7.61386ZM8.98611 3.81698H21.0138V9.39429H8.98611V3.81698ZM6.19646 7.61392H7.71387V9.39429H6.19646V7.61392ZM21.0139 26.1832H8.98611V17.8055H21.0138V26.1832H21.0139ZM28.7278 18.5821H28.7278C28.7278 19.0458 28.3505 19.4231 27.8868 19.4231H22.2861V17.8055H23.4466C23.7979 17.8055 24.0827 17.5207 24.0827 17.1694C24.0827 16.8181 23.7979 16.5332 23.4466 16.5332H21.65H8.35002H6.55348C6.20221 16.5332 5.91732 16.8181 5.91732 17.1694C5.91732 17.5207 6.20221 17.8055 6.55348 17.8055H7.71393V19.4231H2.11324C1.64959 19.4231 1.2723 19.0458 1.2723 18.5821V8.45491C1.2723 7.9912 1.64959 7.61386 2.11324 7.61386H4.92422V10.0303C4.92422 10.3816 5.20904 10.6665 5.56037 10.6665H24.4397C24.791 10.6665 25.0758 10.3816 25.0758 10.0303V7.61386H27.8868C28.3505 7.61386 28.7278 7.99114 28.7278 8.45491V18.5821Z" fill="#3B3D4B"/>
<path d="M4.03137 13.6444C4.47153 13.6444 4.82836 13.2876 4.82836 12.8474C4.82836 12.4072 4.47153 12.0504 4.03137 12.0504C3.5912 12.0504 3.23438 12.4072 3.23438 12.8474C3.23438 13.2876 3.5912 13.6444 4.03137 13.6444Z" fill="#3B3D4B"/>
<path d="M14.8152 22.6439H11.8456C11.4944 22.6439 11.2095 22.9287 11.2095 23.2801C11.2095 23.6313 11.4943 23.9162 11.8456 23.9162H14.8152C15.1664 23.9162 15.4513 23.6313 15.4513 23.2801C15.4513 22.9287 15.1664 22.6439 14.8152 22.6439Z" fill="#3B3D4B"/>
<path d="M18.1539 19.4229H11.8456C11.4944 19.4229 11.2095 19.7077 11.2095 20.059C11.2095 20.4103 11.4943 20.6952 11.8456 20.6952H18.1539C18.5052 20.6952 18.79 20.4103 18.79 20.059C18.79 19.7077 18.5052 19.4229 18.1539 19.4229Z" fill="#3B3D4B"/>
</g>
<defs>
<clipPath id="clip0">
<rect width="30" height="30" fill="white"/>
</clipPath>
</defs>
</svg>
