<svg width="30" height="30" viewBox="0 0 30 30" fill="none" xmlns="http://www.w3.org/2000/svg">
<path d="M2.90332 9.67737H4.8388V10.6451H2.90332V9.67737Z" fill="#3B3D4B"/>
<path d="M28.5484 7.74194C29.3486 7.74194 30 7.09055 30 6.29032V1.45161C30 0.651383 29.3486 0 28.5484 0H21.7742C20.974 0 20.3226 0.651383 20.3226 1.45161V6.29032C20.3226 7.09055 20.974 7.74194 21.7742 7.74194H23.2258V8.70968H22.2581V9.67742H24.6774V14.5161H22.6805C22.2944 14.1393 21.8191 13.8508 21.287 13.692C21.2894 13.6431 21.2903 13.5959 21.2903 13.5484C21.2903 11.414 19.5538 9.67742 17.4194 9.67742C16.0951 9.67742 14.8641 10.3664 14.1591 11.4683C13.6625 11.2453 13.1255 11.129 12.5806 11.129C10.9748 11.129 9.52881 12.1412 8.96319 13.6259C8.59556 13.7048 8.25298 13.8461 7.94182 14.0323H4.35484V12.5806H6.29032C7.09055 12.5806 7.74194 11.9293 7.74194 11.129V1.45161C7.74194 0.651383 7.09055 0 6.29032 0H1.45161C0.651383 0 0 0.651383 0 1.45161V11.129C0 11.9293 0.651383 12.5806 1.45161 12.5806H3.3871V15H6.91264C6.70686 15.2937 6.54714 15.6178 6.44224 15.9677H4.35484V21.2903H2.41935C1.61912 21.2903 0.967742 21.9417 0.967742 22.7419V27.0968H0V28.5484C0 29.3486 0.651383 30 1.45161 30H9.19355C9.99378 30 10.6452 29.3486 10.6452 28.5484V27.0968H9.67742V22.7419C9.67742 21.9417 9.02604 21.2903 8.22581 21.2903H5.32258V16.9355H6.29032C6.29032 18.8027 7.81022 20.3226 9.67742 20.3226H20.3226C22.0253 20.3226 23.4349 19.0579 23.6709 17.4194H25.6452V21.2903H22.2581V30H30V21.2903H26.6129V16.4516H23.669C23.6187 16.1109 23.5143 15.7868 23.368 15.4839H25.6452V9.67742H28.0645V8.70968H27.0968V7.74194H28.5484ZM6.77419 7.74194H0.967742V2.90323H6.77419V7.74194ZM1.45161 0.967742H6.29032C6.5573 0.967742 6.77419 1.18463 6.77419 1.45161V1.93548H0.967742V1.45161C0.967742 1.18463 1.18463 0.967742 1.45161 0.967742ZM0.967742 11.129V8.70968H6.77419V11.129C6.77419 11.396 6.5573 11.6129 6.29032 11.6129H1.45161C1.18463 11.6129 0.967742 11.396 0.967742 11.129ZM9.67742 28.5484C9.67742 28.8154 9.46053 29.0323 9.19355 29.0323H1.45161C1.18463 29.0323 0.967742 28.8154 0.967742 28.5484V28.0645H9.67742V28.5484ZM8.70968 22.7419V27.0968H1.93548V22.7419C1.93548 22.475 2.15238 22.2581 2.41935 22.2581H8.22581C8.49279 22.2581 8.70968 22.475 8.70968 22.7419ZM23.2258 29.0323V26.129H29.0323V29.0323H23.2258ZM29.0323 25.1613H23.2258V22.2581H29.0323V25.1613ZM20.3226 19.3548H9.67742C8.34347 19.3548 7.25806 18.2694 7.25806 16.9355C7.25806 15.7123 8.17359 14.6806 9.38705 14.5355L9.70459 14.4972L9.79413 14.1901C10.1521 12.9575 11.2984 12.0968 12.5806 12.0968C13.1148 12.0968 13.6393 12.2468 14.0991 12.5298L14.561 12.8148L14.7914 12.3226C15.2677 11.3032 16.2992 10.6452 17.4194 10.6452C19.0205 10.6452 20.3226 11.9472 20.3226 13.5484C20.3226 13.6819 20.3105 13.8241 20.2843 13.9959L20.2113 14.4745L20.6897 14.5471C21.8597 14.7257 22.7419 15.7525 22.7419 16.9355C22.7419 18.2694 21.6565 19.3548 20.3226 19.3548ZM21.7742 0.967742H28.5484C28.8154 0.967742 29.0323 1.18463 29.0323 1.45161V4.83871H21.2903V1.45161C21.2903 1.18463 21.5072 0.967742 21.7742 0.967742ZM21.2903 6.29032V5.80645H29.0323V6.29032C29.0323 6.5573 28.8154 6.77419 28.5484 6.77419H21.7742C21.5072 6.77419 21.2903 6.5573 21.2903 6.29032ZM26.129 8.70968H24.1935V7.74194H26.129V8.70968Z" fill="#3B3D4B"/>
<path d="M24.1934 23.2258H25.1611V24.1936H24.1934V23.2258Z" fill="#3B3D4B"/>
<path d="M27.0967 27.0968H28.0644V28.0645H27.0967V27.0968Z" fill="#3B3D4B"/>
<path d="M26.1289 23.2258H28.0644V24.1936H26.1289V23.2258Z" fill="#3B3D4B"/>
<path d="M24.1934 27.0968H26.1288V28.0645H24.1934V27.0968Z" fill="#3B3D4B"/>
</svg>
