<svg width="30" height="30" viewBox="0 0 30 30" fill="none" xmlns="http://www.w3.org/2000/svg">
<path d="M1.20007 3.19897C2.60535 1.79224 4.51184 1.00195 6.50012 1.00195C8.4884 1.00195 10.3949 1.79224 11.8002 3.19897C11.9965 3.38818 12.3085 3.38501 12.5011 3.19189C12.6937 2.99878 12.6959 2.68677 12.5062 2.49097C10.9135 0.89624 8.75208 0 6.49817 0C4.24426 0 2.08289 0.89624 0.490113 2.49097C0.294556 2.68701 0.295044 3.00439 0.491089 3.19995C0.687134 3.39551 1.00452 3.39502 1.20007 3.19897Z" fill="#3B3D4B"/>
<path d="M10.0349 5.46393C10.2373 5.46393 10.4194 5.3421 10.4968 5.15533C10.5742 4.96857 10.5315 4.75348 10.3884 4.61041C8.24141 2.46173 4.7585 2.46173 2.61153 4.61041C2.42208 4.8067 2.42476 5.11847 2.61763 5.31134C2.8105 5.50421 3.12227 5.5069 3.31856 5.31744C5.07564 3.56085 7.92427 3.56085 9.68136 5.31744C9.77511 5.41119 9.9023 5.46393 10.0349 5.46393Z" fill="#3B3D4B"/>
<path d="M4.7337 6.72803C4.55524 6.92407 4.56085 7.22583 4.74689 7.41504C4.93317 7.60424 5.23468 7.61523 5.4339 7.43994C6.02936 6.87158 6.96637 6.87158 7.56183 7.43994C7.76105 7.61523 8.06256 7.60424 8.24859 7.41504C8.43463 7.22583 8.44049 6.92407 8.26178 6.72803C7.28522 5.75586 5.7066 5.75586 4.7298 6.72803H4.7337Z" fill="#3B3D4B"/>
<path d="M28.5 18.999H8V10.499C8 9.67041 7.32837 8.99902 6.5 8.99902C5.67163 8.99902 5 9.67041 5 10.499V18.999H1.5C0.671631 18.999 0 19.6704 0 20.499V28.499C0 29.3274 0.671631 29.999 1.5 29.999H28.5C29.3284 29.999 30 29.3274 30 28.499V20.499C30 19.6704 29.3284 18.999 28.5 18.999ZM6 10.499C6 10.2227 6.22388 9.99902 6.5 9.99902C6.77612 9.99902 7 10.2227 7 10.499V18.999H6V10.499ZM29 28.499C29 28.7751 28.7761 28.999 28.5 28.999H1.5C1.22388 28.999 1 28.7751 1 28.499V20.499C1 20.2227 1.22388 19.999 1.5 19.999H28.5C28.7761 19.999 29 20.2227 29 20.499V28.499Z" fill="#3B3D4B"/>
<path d="M27.5 20.999H2.5C2.22388 20.999 2 21.2227 2 21.499V27.499C2 27.7751 2.22388 27.999 2.5 27.999H27.5C27.7761 27.999 28 27.7751 28 27.499V21.499C28 21.2227 27.7761 20.999 27.5 20.999ZM27 26.999H3V21.999H27V26.999Z" fill="#3B3D4B"/>
<path d="M5.5 25.999C6.32837 25.999 7 25.3274 7 24.499C7 23.6704 6.32837 22.999 5.5 22.999C4.67163 22.999 4 23.6704 4 24.499C4 25.3274 4.67163 25.999 5.5 25.999ZM5.5 23.999C5.77612 23.999 6 24.2227 6 24.499C6 24.7751 5.77612 24.999 5.5 24.999C5.22388 24.999 5 24.7751 5 24.499C5 24.2227 5.22388 23.999 5.5 23.999Z" fill="#3B3D4B"/>
<path d="M9 25.999C9.82837 25.999 10.5 25.3274 10.5 24.499C10.5 23.6704 9.82837 22.999 9 22.999C8.17163 22.999 7.5 23.6704 7.5 24.499C7.5 25.3274 8.17163 25.999 9 25.999ZM9 23.999C9.27612 23.999 9.5 24.2227 9.5 24.499C9.5 24.7751 9.27612 24.999 9 24.999C8.72388 24.999 8.5 24.7751 8.5 24.499C8.5 24.2227 8.72388 23.999 9 23.999Z" fill="#3B3D4B"/>
<path d="M12.5 25.999C13.3284 25.999 14 25.3274 14 24.499C14 23.6704 13.3284 22.999 12.5 22.999C11.6716 22.999 11 23.6704 11 24.499C11 25.3274 11.6716 25.999 12.5 25.999ZM12.5 23.999C12.7761 23.999 13 24.2227 13 24.499C13 24.7751 12.7761 24.999 12.5 24.999C12.2239 24.999 12 24.7751 12 24.499C12 24.2227 12.2239 23.999 12.5 23.999Z" fill="#3B3D4B"/>
<path d="M18 25.999C18.2761 25.999 18.5 25.7751 18.5 25.499V23.499C18.5 23.2227 18.2761 22.999 18 22.999C17.7239 22.999 17.5 23.2227 17.5 23.499V25.499C17.5 25.7751 17.7239 25.999 18 25.999Z" fill="#3B3D4B"/>
<path d="M20 25.999C20.2761 25.999 20.5 25.7751 20.5 25.499V23.499C20.5 23.2227 20.2761 22.999 20 22.999C19.7239 22.999 19.5 23.2227 19.5 23.499V25.499C19.5 25.7751 19.7239 25.999 20 25.999Z" fill="#3B3D4B"/>
<path d="M22 25.999C22.2761 25.999 22.5 25.7751 22.5 25.499V23.499C22.5 23.2227 22.2761 22.999 22 22.999C21.7239 22.999 21.5 23.2227 21.5 23.499V25.499C21.5 25.7751 21.7239 25.999 22 25.999Z" fill="#3B3D4B"/>
<path d="M24 25.999C24.2761 25.999 24.5 25.7751 24.5 25.499V23.499C24.5 23.2227 24.2761 22.999 24 22.999C23.7239 22.999 23.5 23.2227 23.5 23.499V25.499C23.5 25.7751 23.7239 25.999 24 25.999Z" fill="#3B3D4B"/>
</svg>
