<svg width="665" height="53" viewBox="0 0 665 53" fill="none" xmlns="http://www.w3.org/2000/svg">
<path d="M73.5625 48H70.8047L69.2578 42C69.2005 41.7865 69.1016 41.3464 68.9609 40.6797C68.8255 40.0078 68.7474 39.5573 68.7266 39.3281C68.6953 39.6094 68.6172 40.0625 68.4922 40.6875C68.3672 41.3073 68.2708 41.75 68.2031 42.0156L66.6641 48H63.9141L61 36.5781H63.3828L64.8438 42.8125C65.099 43.9635 65.2839 44.9609 65.3984 45.8047C65.4297 45.5078 65.5 45.0495 65.6094 44.4297C65.724 43.8047 65.8307 43.3203 65.9297 42.9766L67.5938 36.5781H69.8828L71.5469 42.9766C71.6198 43.263 71.7109 43.7005 71.8203 44.2891C71.9297 44.8776 72.013 45.3828 72.0703 45.8047C72.1224 45.3984 72.2057 44.8932 72.3203 44.2891C72.4349 43.6797 72.5391 43.1875 72.6328 42.8125L74.0859 36.5781H76.4688L73.5625 48ZM81.3359 40.7969C80.8307 40.7969 80.4349 40.9583 80.1484 41.2812C79.862 41.599 79.6979 42.0521 79.6562 42.6406H83C82.9896 42.0521 82.8359 41.599 82.5391 41.2812C82.2422 40.9583 81.8411 40.7969 81.3359 40.7969ZM81.6719 48.1562C80.2656 48.1562 79.1667 47.7682 78.375 46.9922C77.5833 46.2161 77.1875 45.1172 77.1875 43.6953C77.1875 42.2318 77.5521 41.1016 78.2812 40.3047C79.0156 39.5026 80.0286 39.1016 81.3203 39.1016C82.5547 39.1016 83.5156 39.4531 84.2031 40.1562C84.8906 40.8594 85.2344 41.8307 85.2344 43.0703V44.2266H79.6016C79.6276 44.9036 79.8281 45.4323 80.2031 45.8125C80.5781 46.1927 81.1042 46.3828 81.7812 46.3828C82.3073 46.3828 82.8047 46.3281 83.2734 46.2188C83.7422 46.1094 84.2318 45.9349 84.7422 45.6953V47.5391C84.3255 47.7474 83.8802 47.901 83.4062 48C82.9323 48.1042 82.3542 48.1562 81.6719 48.1562ZM92.0312 39.1016C93.0625 39.1016 93.8698 39.5052 94.4531 40.3125C95.0365 41.1146 95.3281 42.2161 95.3281 43.6172C95.3281 45.0599 95.026 46.1771 94.4219 46.9688C93.8229 47.7604 93.0052 48.1562 91.9688 48.1562C90.9427 48.1562 90.138 47.7839 89.5547 47.0391H89.3906L88.9922 48H87.1719V35.8438H89.5547V38.6719C89.5547 39.0312 89.5234 39.6068 89.4609 40.3984H89.5547C90.112 39.5339 90.9375 39.1016 92.0312 39.1016ZM91.2656 41.0078C90.6771 41.0078 90.2474 41.1901 89.9766 41.5547C89.7057 41.9141 89.5651 42.5104 89.5547 43.3438V43.6016C89.5547 44.5391 89.6927 45.2109 89.9688 45.6172C90.25 46.0234 90.6927 46.2266 91.2969 46.2266C91.7865 46.2266 92.1745 46.0026 92.4609 45.5547C92.7526 45.1016 92.8984 44.4453 92.8984 43.5859C92.8984 42.7266 92.7526 42.0833 92.4609 41.6562C92.1693 41.224 91.7708 41.0078 91.2656 41.0078ZM111.117 42.1797C111.117 44.0599 110.581 45.5 109.508 46.5C108.44 47.5 106.896 48 104.875 48H101.641V36.5781H105.227C107.091 36.5781 108.539 37.0703 109.57 38.0547C110.602 39.0391 111.117 40.4141 111.117 42.1797ZM108.602 42.2422C108.602 39.7891 107.518 38.5625 105.352 38.5625H104.062V46H105.102C107.435 46 108.602 44.7474 108.602 42.2422ZM116.914 40.7969C116.409 40.7969 116.013 40.9583 115.727 41.2812C115.44 41.599 115.276 42.0521 115.234 42.6406H118.578C118.568 42.0521 118.414 41.599 118.117 41.2812C117.82 40.9583 117.419 40.7969 116.914 40.7969ZM117.25 48.1562C115.844 48.1562 114.745 47.7682 113.953 46.9922C113.161 46.2161 112.766 45.1172 112.766 43.6953C112.766 42.2318 113.13 41.1016 113.859 40.3047C114.594 39.5026 115.607 39.1016 116.898 39.1016C118.133 39.1016 119.094 39.4531 119.781 40.1562C120.469 40.8594 120.812 41.8307 120.812 43.0703V44.2266H115.18C115.206 44.9036 115.406 45.4323 115.781 45.8125C116.156 46.1927 116.682 46.3828 117.359 46.3828C117.885 46.3828 118.383 46.3281 118.852 46.2188C119.32 46.1094 119.81 45.9349 120.32 45.6953V47.5391C119.904 47.7474 119.458 47.901 118.984 48C118.51 48.1042 117.932 48.1562 117.25 48.1562ZM128.844 45.4062C128.844 46.3021 128.531 46.9844 127.906 47.4531C127.286 47.9219 126.357 48.1562 125.117 48.1562C124.482 48.1562 123.94 48.112 123.492 48.0234C123.044 47.9401 122.625 47.8151 122.234 47.6484V45.6797C122.677 45.888 123.174 46.0625 123.727 46.2031C124.284 46.3438 124.773 46.4141 125.195 46.4141C126.06 46.4141 126.492 46.1641 126.492 45.6641C126.492 45.4766 126.435 45.3255 126.32 45.2109C126.206 45.0911 126.008 44.9583 125.727 44.8125C125.445 44.6615 125.07 44.487 124.602 44.2891C123.93 44.0078 123.435 43.7474 123.117 43.5078C122.805 43.2682 122.576 42.9948 122.43 42.6875C122.289 42.375 122.219 41.9922 122.219 41.5391C122.219 40.763 122.518 40.1641 123.117 39.7422C123.721 39.3151 124.576 39.1016 125.68 39.1016C126.732 39.1016 127.755 39.3307 128.75 39.7891L128.031 41.5078C127.594 41.3203 127.185 41.1667 126.805 41.0469C126.424 40.9271 126.036 40.8672 125.641 40.8672C124.938 40.8672 124.586 41.0573 124.586 41.4375C124.586 41.651 124.698 41.8359 124.922 41.9922C125.151 42.1484 125.648 42.3802 126.414 42.6875C127.096 42.9635 127.596 43.2214 127.914 43.4609C128.232 43.7005 128.466 43.9766 128.617 44.2891C128.768 44.6016 128.844 44.974 128.844 45.4062ZM130.602 37.0078C130.602 36.2318 131.034 35.8438 131.898 35.8438C132.763 35.8438 133.195 36.2318 133.195 37.0078C133.195 37.3776 133.086 37.6667 132.867 37.875C132.654 38.0781 132.331 38.1797 131.898 38.1797C131.034 38.1797 130.602 37.7891 130.602 37.0078ZM133.086 48H130.703V39.2656H133.086V48ZM143.195 39.2656V40.4766L141.828 40.8281C142.078 41.2188 142.203 41.6562 142.203 42.1406C142.203 43.0781 141.875 43.8099 141.219 44.3359C140.568 44.8568 139.661 45.1172 138.5 45.1172L138.07 45.0938L137.719 45.0547C137.474 45.2422 137.352 45.4505 137.352 45.6797C137.352 46.0234 137.789 46.1953 138.664 46.1953H140.148C141.107 46.1953 141.836 46.401 142.336 46.8125C142.841 47.224 143.094 47.8281 143.094 48.625C143.094 49.6458 142.667 50.4375 141.812 51C140.964 51.5625 139.742 51.8438 138.148 51.8438C136.93 51.8438 135.997 51.6302 135.352 51.2031C134.711 50.7812 134.391 50.1875 134.391 49.4219C134.391 48.8958 134.555 48.4557 134.883 48.1016C135.211 47.7474 135.693 47.4948 136.328 47.3438C136.083 47.2396 135.87 47.0703 135.688 46.8359C135.505 46.5964 135.414 46.3438 135.414 46.0781C135.414 45.7448 135.51 45.4688 135.703 45.25C135.896 45.026 136.174 44.8073 136.539 44.5938C136.081 44.3958 135.716 44.0781 135.445 43.6406C135.18 43.2031 135.047 42.6875 135.047 42.0938C135.047 41.1406 135.357 40.4036 135.977 39.8828C136.596 39.362 137.482 39.1016 138.633 39.1016C138.878 39.1016 139.167 39.125 139.5 39.1719C139.839 39.2135 140.055 39.2448 140.148 39.2656H143.195ZM136.453 49.2344C136.453 49.5625 136.609 49.8203 136.922 50.0078C137.24 50.1953 137.682 50.2891 138.25 50.2891C139.104 50.2891 139.773 50.1719 140.258 49.9375C140.742 49.7031 140.984 49.3828 140.984 48.9766C140.984 48.6484 140.841 48.4219 140.555 48.2969C140.268 48.1719 139.826 48.1094 139.227 48.1094H137.992C137.555 48.1094 137.188 48.2109 136.891 48.4141C136.599 48.6224 136.453 48.8958 136.453 49.2344ZM137.32 42.125C137.32 42.599 137.427 42.974 137.641 43.25C137.859 43.526 138.19 43.6641 138.633 43.6641C139.081 43.6641 139.409 43.526 139.617 43.25C139.826 42.974 139.93 42.599 139.93 42.125C139.93 41.0729 139.497 40.5469 138.633 40.5469C137.758 40.5469 137.32 41.0729 137.32 42.125ZM152.703 48H150.32V42.8984C150.32 42.2682 150.208 41.7969 149.984 41.4844C149.76 41.1667 149.404 41.0078 148.914 41.0078C148.247 41.0078 147.766 41.2318 147.469 41.6797C147.172 42.1224 147.023 42.8594 147.023 43.8906V48H144.641V39.2656H146.461L146.781 40.3828H146.914C147.18 39.9609 147.544 39.6432 148.008 39.4297C148.477 39.2109 149.008 39.1016 149.602 39.1016C150.617 39.1016 151.388 39.3776 151.914 39.9297C152.44 40.4766 152.703 41.2682 152.703 42.3047V48Z" fill="#3B3D4B"/>
<path d="M188.57 48H185.492L180.523 39.3594H180.453C180.552 40.8854 180.602 41.974 180.602 42.625V48H178.438V36.5781H181.492L186.453 45.1328H186.508C186.43 43.6484 186.391 42.599 186.391 41.9844V36.5781H188.57V48ZM194.883 40.7969C194.378 40.7969 193.982 40.9583 193.695 41.2812C193.409 41.599 193.245 42.0521 193.203 42.6406H196.547C196.536 42.0521 196.383 41.599 196.086 41.2812C195.789 40.9583 195.388 40.7969 194.883 40.7969ZM195.219 48.1562C193.812 48.1562 192.714 47.7682 191.922 46.9922C191.13 46.2161 190.734 45.1172 190.734 43.6953C190.734 42.2318 191.099 41.1016 191.828 40.3047C192.562 39.5026 193.576 39.1016 194.867 39.1016C196.102 39.1016 197.062 39.4531 197.75 40.1562C198.438 40.8594 198.781 41.8307 198.781 43.0703V44.2266H193.148C193.174 44.9036 193.375 45.4323 193.75 45.8125C194.125 46.1927 194.651 46.3828 195.328 46.3828C195.854 46.3828 196.352 46.3281 196.82 46.2188C197.289 46.1094 197.779 45.9349 198.289 45.6953V47.5391C197.872 47.7474 197.427 47.901 196.953 48C196.479 48.1042 195.901 48.1562 195.219 48.1562ZM204.398 46.2578C204.815 46.2578 205.315 46.1667 205.898 45.9844V47.7578C205.305 48.0234 204.576 48.1562 203.711 48.1562C202.758 48.1562 202.062 47.9167 201.625 47.4375C201.193 46.9531 200.977 46.2292 200.977 45.2656V41.0547H199.836V40.0469L201.148 39.25L201.836 37.4062H203.359V39.2656H205.805V41.0547H203.359V45.2656C203.359 45.6042 203.453 45.8542 203.641 46.0156C203.833 46.1771 204.086 46.2578 204.398 46.2578ZM214.852 48L214.18 44.9453L213.273 41.0859H213.219L211.625 48H209.062L206.578 39.2656H208.953L209.961 43.1328C210.122 43.8255 210.286 44.7812 210.453 46H210.5C210.521 45.6042 210.612 44.9766 210.773 44.1172L210.898 43.4531L211.977 39.2656H214.602L215.625 43.4531C215.646 43.5677 215.677 43.737 215.719 43.9609C215.766 44.1849 215.81 44.4245 215.852 44.6797C215.893 44.9297 215.93 45.1771 215.961 45.4219C215.997 45.6615 216.018 45.8542 216.023 46H216.07C216.117 45.625 216.201 45.112 216.32 44.4609C216.44 43.8047 216.526 43.362 216.578 43.1328L217.625 39.2656H219.961L217.445 48H214.852ZM223.273 43.6172C223.273 44.4818 223.414 45.1354 223.695 45.5781C223.982 46.0208 224.445 46.2422 225.086 46.2422C225.721 46.2422 226.177 46.0234 226.453 45.5859C226.734 45.1432 226.875 44.487 226.875 43.6172C226.875 42.7526 226.734 42.1042 226.453 41.6719C226.172 41.2396 225.711 41.0234 225.07 41.0234C224.435 41.0234 223.977 41.2396 223.695 41.6719C223.414 42.099 223.273 42.7474 223.273 43.6172ZM229.312 43.6172C229.312 45.0391 228.938 46.151 228.188 46.9531C227.438 47.7552 226.393 48.1562 225.055 48.1562C224.216 48.1562 223.477 47.974 222.836 47.6094C222.195 47.2396 221.703 46.7109 221.359 46.0234C221.016 45.3359 220.844 44.5339 220.844 43.6172C220.844 42.1901 221.216 41.0807 221.961 40.2891C222.706 39.4974 223.753 39.1016 225.102 39.1016C225.94 39.1016 226.68 39.2839 227.32 39.6484C227.961 40.013 228.453 40.5365 228.797 41.2188C229.141 41.901 229.312 42.7005 229.312 43.6172ZM236.156 39.1016C236.479 39.1016 236.747 39.125 236.961 39.1719L236.781 41.4062C236.589 41.3542 236.354 41.3281 236.078 41.3281C235.318 41.3281 234.724 41.5234 234.297 41.9141C233.875 42.3047 233.664 42.8516 233.664 43.5547V48H231.281V39.2656H233.086L233.438 40.7344H233.555C233.826 40.2448 234.19 39.8516 234.648 39.5547C235.112 39.2526 235.615 39.1016 236.156 39.1016ZM240.836 43.25L241.875 41.9219L244.32 39.2656H247.008L243.539 43.0547L247.219 48H244.469L241.953 44.4609L240.93 45.2812V48H238.547V35.8438H240.93V41.2656L240.805 43.25H240.836ZM259.555 44.8281C259.555 45.8594 259.182 46.6719 258.438 47.2656C257.698 47.8594 256.667 48.1562 255.344 48.1562C254.125 48.1562 253.047 47.9271 252.109 47.4688V45.2188C252.88 45.5625 253.531 45.8047 254.062 45.9453C254.599 46.0859 255.089 46.1562 255.531 46.1562C256.062 46.1562 256.469 46.0547 256.75 45.8516C257.036 45.6484 257.18 45.3464 257.18 44.9453C257.18 44.7214 257.117 44.5234 256.992 44.3516C256.867 44.1745 256.682 44.0052 256.438 43.8438C256.198 43.6823 255.706 43.4245 254.961 43.0703C254.263 42.7422 253.74 42.4271 253.391 42.125C253.042 41.8229 252.763 41.4714 252.555 41.0703C252.346 40.6693 252.242 40.2005 252.242 39.6641C252.242 38.6536 252.583 37.8594 253.266 37.2812C253.953 36.7031 254.901 36.4141 256.109 36.4141C256.703 36.4141 257.268 36.4844 257.805 36.625C258.346 36.7656 258.911 36.9635 259.5 37.2188L258.719 39.1016C258.109 38.8516 257.604 38.6771 257.203 38.5781C256.807 38.4792 256.417 38.4297 256.031 38.4297C255.573 38.4297 255.221 38.5365 254.977 38.75C254.732 38.9635 254.609 39.2422 254.609 39.5859C254.609 39.7995 254.659 39.987 254.758 40.1484C254.857 40.3047 255.013 40.4583 255.227 40.6094C255.445 40.7552 255.958 41.0208 256.766 41.4062C257.833 41.9167 258.565 42.4297 258.961 42.9453C259.357 43.4557 259.555 44.0833 259.555 44.8281ZM267.625 48L267.305 46.8828H267.18C266.924 47.2891 266.562 47.6042 266.094 47.8281C265.625 48.0469 265.091 48.1562 264.492 48.1562C263.466 48.1562 262.693 47.8828 262.172 47.3359C261.651 46.7839 261.391 45.9922 261.391 44.9609V39.2656H263.773V44.3672C263.773 44.9974 263.885 45.4714 264.109 45.7891C264.333 46.1016 264.69 46.2578 265.18 46.2578C265.846 46.2578 266.328 46.0365 266.625 45.5938C266.922 45.1458 267.07 44.4062 267.07 43.375V39.2656H269.453V48H267.625ZM276.75 48.1562C275.724 48.1562 274.919 47.7839 274.336 47.0391H274.211C274.294 47.7682 274.336 48.1901 274.336 48.3047V51.8438H271.953V39.2656H273.891L274.227 40.3984H274.336C274.893 39.5339 275.719 39.1016 276.812 39.1016C277.844 39.1016 278.651 39.5 279.234 40.2969C279.818 41.0938 280.109 42.2005 280.109 43.6172C280.109 44.5495 279.971 45.3594 279.695 46.0469C279.424 46.7344 279.036 47.2578 278.531 47.6172C278.026 47.9766 277.432 48.1562 276.75 48.1562ZM276.047 41.0078C275.458 41.0078 275.029 41.1901 274.758 41.5547C274.487 41.9141 274.346 42.5104 274.336 43.3438V43.6016C274.336 44.5391 274.474 45.2109 274.75 45.6172C275.031 46.0234 275.474 46.2266 276.078 46.2266C277.146 46.2266 277.68 45.3464 277.68 43.5859C277.68 42.7266 277.547 42.0833 277.281 41.6562C277.021 41.224 276.609 41.0078 276.047 41.0078ZM286.875 48.1562C285.849 48.1562 285.044 47.7839 284.461 47.0391H284.336C284.419 47.7682 284.461 48.1901 284.461 48.3047V51.8438H282.078V39.2656H284.016L284.352 40.3984H284.461C285.018 39.5339 285.844 39.1016 286.938 39.1016C287.969 39.1016 288.776 39.5 289.359 40.2969C289.943 41.0938 290.234 42.2005 290.234 43.6172C290.234 44.5495 290.096 45.3594 289.82 46.0469C289.549 46.7344 289.161 47.2578 288.656 47.6172C288.151 47.9766 287.557 48.1562 286.875 48.1562ZM286.172 41.0078C285.583 41.0078 285.154 41.1901 284.883 41.5547C284.612 41.9141 284.471 42.5104 284.461 43.3438V43.6016C284.461 44.5391 284.599 45.2109 284.875 45.6172C285.156 46.0234 285.599 46.2266 286.203 46.2266C287.271 46.2266 287.805 45.3464 287.805 43.5859C287.805 42.7266 287.672 42.0833 287.406 41.6562C287.146 41.224 286.734 41.0078 286.172 41.0078ZM294.102 43.6172C294.102 44.4818 294.242 45.1354 294.523 45.5781C294.81 46.0208 295.273 46.2422 295.914 46.2422C296.549 46.2422 297.005 46.0234 297.281 45.5859C297.562 45.1432 297.703 44.487 297.703 43.6172C297.703 42.7526 297.562 42.1042 297.281 41.6719C297 41.2396 296.539 41.0234 295.898 41.0234C295.263 41.0234 294.805 41.2396 294.523 41.6719C294.242 42.099 294.102 42.7474 294.102 43.6172ZM300.141 43.6172C300.141 45.0391 299.766 46.151 299.016 46.9531C298.266 47.7552 297.221 48.1562 295.883 48.1562C295.044 48.1562 294.305 47.974 293.664 47.6094C293.023 47.2396 292.531 46.7109 292.188 46.0234C291.844 45.3359 291.672 44.5339 291.672 43.6172C291.672 42.1901 292.044 41.0807 292.789 40.2891C293.534 39.4974 294.581 39.1016 295.93 39.1016C296.768 39.1016 297.508 39.2839 298.148 39.6484C298.789 40.013 299.281 40.5365 299.625 41.2188C299.969 41.901 300.141 42.7005 300.141 43.6172ZM306.984 39.1016C307.307 39.1016 307.576 39.125 307.789 39.1719L307.609 41.4062C307.417 41.3542 307.182 41.3281 306.906 41.3281C306.146 41.3281 305.552 41.5234 305.125 41.9141C304.703 42.3047 304.492 42.8516 304.492 43.5547V48H302.109V39.2656H303.914L304.266 40.7344H304.383C304.654 40.2448 305.018 39.8516 305.477 39.5547C305.94 39.2526 306.443 39.1016 306.984 39.1016ZM313.055 46.2578C313.471 46.2578 313.971 46.1667 314.555 45.9844V47.7578C313.961 48.0234 313.232 48.1562 312.367 48.1562C311.414 48.1562 310.719 47.9167 310.281 47.4375C309.849 46.9531 309.633 46.2292 309.633 45.2656V41.0547H308.492V40.0469L309.805 39.25L310.492 37.4062H312.016V39.2656H314.461V41.0547H312.016V45.2656C312.016 45.6042 312.109 45.8542 312.297 46.0156C312.49 46.1771 312.742 46.2578 313.055 46.2578Z" fill="#3B3D4B"/>
<path d="M346.289 38.4297C345.378 38.4297 344.672 38.7734 344.172 39.4609C343.672 40.1432 343.422 41.0964 343.422 42.3203C343.422 44.8672 344.378 46.1406 346.289 46.1406C347.091 46.1406 348.062 45.9401 349.203 45.5391V47.5703C348.266 47.9609 347.219 48.1562 346.062 48.1562C344.401 48.1562 343.13 47.6536 342.25 46.6484C341.37 45.638 340.93 44.1901 340.93 42.3047C340.93 41.1172 341.146 40.0781 341.578 39.1875C342.01 38.2917 342.63 37.6068 343.438 37.1328C344.25 36.6536 345.201 36.4141 346.289 36.4141C347.398 36.4141 348.513 36.6823 349.633 37.2188L348.852 39.1875C348.424 38.9844 347.995 38.8073 347.562 38.6562C347.13 38.5052 346.706 38.4297 346.289 38.4297ZM353.352 43.6172C353.352 44.4818 353.492 45.1354 353.773 45.5781C354.06 46.0208 354.523 46.2422 355.164 46.2422C355.799 46.2422 356.255 46.0234 356.531 45.5859C356.812 45.1432 356.953 44.487 356.953 43.6172C356.953 42.7526 356.812 42.1042 356.531 41.6719C356.25 41.2396 355.789 41.0234 355.148 41.0234C354.513 41.0234 354.055 41.2396 353.773 41.6719C353.492 42.099 353.352 42.7474 353.352 43.6172ZM359.391 43.6172C359.391 45.0391 359.016 46.151 358.266 46.9531C357.516 47.7552 356.471 48.1562 355.133 48.1562C354.294 48.1562 353.555 47.974 352.914 47.6094C352.273 47.2396 351.781 46.7109 351.438 46.0234C351.094 45.3359 350.922 44.5339 350.922 43.6172C350.922 42.1901 351.294 41.0807 352.039 40.2891C352.784 39.4974 353.831 39.1016 355.18 39.1016C356.018 39.1016 356.758 39.2839 357.398 39.6484C358.039 40.013 358.531 40.5365 358.875 41.2188C359.219 41.901 359.391 42.7005 359.391 43.6172ZM369.18 48H366.797V42.8984C366.797 42.2682 366.69 41.7969 366.477 41.4844C366.268 41.1667 365.938 41.0078 365.484 41.0078C364.875 41.0078 364.432 41.2318 364.156 41.6797C363.88 42.1276 363.742 42.8646 363.742 43.8906V48H361.359V39.2656H363.18L363.5 40.3828H363.633C363.867 39.9818 364.206 39.6693 364.648 39.4453C365.091 39.2161 365.599 39.1016 366.172 39.1016C367.479 39.1016 368.365 39.5286 368.828 40.3828H369.039C369.273 39.9766 369.617 39.6615 370.07 39.4375C370.529 39.2135 371.044 39.1016 371.617 39.1016C372.607 39.1016 373.354 39.3568 373.859 39.8672C374.37 40.3724 374.625 41.1849 374.625 42.3047V48H372.234V42.8984C372.234 42.2682 372.128 41.7969 371.914 41.4844C371.706 41.1667 371.375 41.0078 370.922 41.0078C370.339 41.0078 369.901 41.2161 369.609 41.6328C369.323 42.0495 369.18 42.7109 369.18 43.6172V48ZM381.875 48.1562C380.849 48.1562 380.044 47.7839 379.461 47.0391H379.336C379.419 47.7682 379.461 48.1901 379.461 48.3047V51.8438H377.078V39.2656H379.016L379.352 40.3984H379.461C380.018 39.5339 380.844 39.1016 381.938 39.1016C382.969 39.1016 383.776 39.5 384.359 40.2969C384.943 41.0938 385.234 42.2005 385.234 43.6172C385.234 44.5495 385.096 45.3594 384.82 46.0469C384.549 46.7344 384.161 47.2578 383.656 47.6172C383.151 47.9766 382.557 48.1562 381.875 48.1562ZM381.172 41.0078C380.583 41.0078 380.154 41.1901 379.883 41.5547C379.612 41.9141 379.471 42.5104 379.461 43.3438V43.6016C379.461 44.5391 379.599 45.2109 379.875 45.6172C380.156 46.0234 380.599 46.2266 381.203 46.2266C382.271 46.2266 382.805 45.3464 382.805 43.5859C382.805 42.7266 382.672 42.0833 382.406 41.6562C382.146 41.224 381.734 41.0078 381.172 41.0078ZM393.391 48L393.07 46.8828H392.945C392.69 47.2891 392.328 47.6042 391.859 47.8281C391.391 48.0469 390.857 48.1562 390.258 48.1562C389.232 48.1562 388.458 47.8828 387.938 47.3359C387.417 46.7839 387.156 45.9922 387.156 44.9609V39.2656H389.539V44.3672C389.539 44.9974 389.651 45.4714 389.875 45.7891C390.099 46.1016 390.456 46.2578 390.945 46.2578C391.612 46.2578 392.094 46.0365 392.391 45.5938C392.688 45.1458 392.836 44.4062 392.836 43.375V39.2656H395.219V48H393.391ZM401.398 46.2578C401.815 46.2578 402.315 46.1667 402.898 45.9844V47.7578C402.305 48.0234 401.576 48.1562 400.711 48.1562C399.758 48.1562 399.062 47.9167 398.625 47.4375C398.193 46.9531 397.977 46.2292 397.977 45.2656V41.0547H396.836V40.0469L398.148 39.25L398.836 37.4062H400.359V39.2656H402.805V41.0547H400.359V45.2656C400.359 45.6042 400.453 45.8542 400.641 46.0156C400.833 46.1771 401.086 46.2578 401.398 46.2578ZM408.289 40.7969C407.784 40.7969 407.388 40.9583 407.102 41.2812C406.815 41.599 406.651 42.0521 406.609 42.6406H409.953C409.943 42.0521 409.789 41.599 409.492 41.2812C409.195 40.9583 408.794 40.7969 408.289 40.7969ZM408.625 48.1562C407.219 48.1562 406.12 47.7682 405.328 46.9922C404.536 46.2161 404.141 45.1172 404.141 43.6953C404.141 42.2318 404.505 41.1016 405.234 40.3047C405.969 39.5026 406.982 39.1016 408.273 39.1016C409.508 39.1016 410.469 39.4531 411.156 40.1562C411.844 40.8594 412.188 41.8307 412.188 43.0703V44.2266H406.555C406.581 44.9036 406.781 45.4323 407.156 45.8125C407.531 46.1927 408.057 46.3828 408.734 46.3828C409.26 46.3828 409.758 46.3281 410.227 46.2188C410.695 46.1094 411.185 45.9349 411.695 45.6953V47.5391C411.279 47.7474 410.833 47.901 410.359 48C409.885 48.1042 409.307 48.1562 408.625 48.1562ZM419 39.1016C419.323 39.1016 419.591 39.125 419.805 39.1719L419.625 41.4062C419.432 41.3542 419.198 41.3281 418.922 41.3281C418.161 41.3281 417.568 41.5234 417.141 41.9141C416.719 42.3047 416.508 42.8516 416.508 43.5547V48H414.125V39.2656H415.93L416.281 40.7344H416.398C416.669 40.2448 417.034 39.8516 417.492 39.5547C417.956 39.2526 418.458 39.1016 419 39.1016ZM428.156 41.6484H428.938C429.703 41.6484 430.268 41.5208 430.633 41.2656C430.997 41.0104 431.18 40.6094 431.18 40.0625C431.18 39.5208 430.992 39.1354 430.617 38.9062C430.247 38.6771 429.672 38.5625 428.891 38.5625H428.156V41.6484ZM428.156 43.6172V48H425.734V36.5781H429.062C430.615 36.5781 431.763 36.862 432.508 37.4297C433.253 37.9922 433.625 38.849 433.625 40C433.625 40.6719 433.44 41.2708 433.07 41.7969C432.701 42.3177 432.177 42.7266 431.5 43.0234C433.219 45.5911 434.339 47.25 434.859 48H432.172L429.445 43.6172H428.156ZM439.727 40.7969C439.221 40.7969 438.826 40.9583 438.539 41.2812C438.253 41.599 438.089 42.0521 438.047 42.6406H441.391C441.38 42.0521 441.227 41.599 440.93 41.2812C440.633 40.9583 440.232 40.7969 439.727 40.7969ZM440.062 48.1562C438.656 48.1562 437.557 47.7682 436.766 46.9922C435.974 46.2161 435.578 45.1172 435.578 43.6953C435.578 42.2318 435.943 41.1016 436.672 40.3047C437.406 39.5026 438.419 39.1016 439.711 39.1016C440.945 39.1016 441.906 39.4531 442.594 40.1562C443.281 40.8594 443.625 41.8307 443.625 43.0703V44.2266H437.992C438.018 44.9036 438.219 45.4323 438.594 45.8125C438.969 46.1927 439.495 46.3828 440.172 46.3828C440.698 46.3828 441.195 46.3281 441.664 46.2188C442.133 46.1094 442.622 45.9349 443.133 45.6953V47.5391C442.716 47.7474 442.271 47.901 441.797 48C441.323 48.1042 440.745 48.1562 440.062 48.1562ZM450.359 48.1562C449.333 48.1562 448.529 47.7839 447.945 47.0391H447.82C447.904 47.7682 447.945 48.1901 447.945 48.3047V51.8438H445.562V39.2656H447.5L447.836 40.3984H447.945C448.503 39.5339 449.328 39.1016 450.422 39.1016C451.453 39.1016 452.26 39.5 452.844 40.2969C453.427 41.0938 453.719 42.2005 453.719 43.6172C453.719 44.5495 453.581 45.3594 453.305 46.0469C453.034 46.7344 452.646 47.2578 452.141 47.6172C451.635 47.9766 451.042 48.1562 450.359 48.1562ZM449.656 41.0078C449.068 41.0078 448.638 41.1901 448.367 41.5547C448.096 41.9141 447.956 42.5104 447.945 43.3438V43.6016C447.945 44.5391 448.083 45.2109 448.359 45.6172C448.641 46.0234 449.083 46.2266 449.688 46.2266C450.755 46.2266 451.289 45.3464 451.289 43.5859C451.289 42.7266 451.156 42.0833 450.891 41.6562C450.63 41.224 450.219 41.0078 449.656 41.0078ZM461.234 48L460.773 46.8125H460.711C460.31 47.3177 459.896 47.6693 459.469 47.8672C459.047 48.0599 458.495 48.1562 457.812 48.1562C456.974 48.1562 456.312 47.9167 455.828 47.4375C455.349 46.9583 455.109 46.276 455.109 45.3906C455.109 44.4635 455.432 43.7812 456.078 43.3438C456.729 42.901 457.708 42.6562 459.016 42.6094L460.531 42.5625V42.1797C460.531 41.2943 460.078 40.8516 459.172 40.8516C458.474 40.8516 457.654 41.0625 456.711 41.4844L455.922 39.875C456.927 39.349 458.042 39.0859 459.266 39.0859C460.438 39.0859 461.336 39.3411 461.961 39.8516C462.586 40.362 462.898 41.138 462.898 42.1797V48H461.234ZM460.531 43.9531L459.609 43.9844C458.917 44.0052 458.401 44.1302 458.062 44.3594C457.724 44.5885 457.555 44.9375 457.555 45.4062C457.555 46.0781 457.94 46.4141 458.711 46.4141C459.263 46.4141 459.703 46.2552 460.031 45.9375C460.365 45.6198 460.531 45.1979 460.531 44.6719V43.9531ZM465.258 37.0078C465.258 36.2318 465.69 35.8438 466.555 35.8438C467.419 35.8438 467.852 36.2318 467.852 37.0078C467.852 37.3776 467.742 37.6667 467.523 37.875C467.31 38.0781 466.987 38.1797 466.555 38.1797C465.69 38.1797 465.258 37.7891 465.258 37.0078ZM467.742 48H465.359V39.2656H467.742V48ZM475.125 39.1016C475.448 39.1016 475.716 39.125 475.93 39.1719L475.75 41.4062C475.557 41.3542 475.323 41.3281 475.047 41.3281C474.286 41.3281 473.693 41.5234 473.266 41.9141C472.844 42.3047 472.633 42.8516 472.633 43.5547V48H470.25V39.2656H472.055L472.406 40.7344H472.523C472.794 40.2448 473.159 39.8516 473.617 39.5547C474.081 39.2526 474.583 39.1016 475.125 39.1016Z" fill="#3B3D4B"/>
<path d="M507.953 36.5781H510.398L506.516 48H503.875L500 36.5781H502.445L504.594 43.375C504.714 43.776 504.836 44.2448 504.961 44.7812C505.091 45.3125 505.172 45.6823 505.203 45.8906C505.26 45.4115 505.456 44.5729 505.789 43.375L507.953 36.5781ZM513.555 43.6172C513.555 44.4818 513.695 45.1354 513.977 45.5781C514.263 46.0208 514.727 46.2422 515.367 46.2422C516.003 46.2422 516.458 46.0234 516.734 45.5859C517.016 45.1432 517.156 44.487 517.156 43.6172C517.156 42.7526 517.016 42.1042 516.734 41.6719C516.453 41.2396 515.992 41.0234 515.352 41.0234C514.716 41.0234 514.258 41.2396 513.977 41.6719C513.695 42.099 513.555 42.7474 513.555 43.6172ZM519.594 43.6172C519.594 45.0391 519.219 46.151 518.469 46.9531C517.719 47.7552 516.674 48.1562 515.336 48.1562C514.497 48.1562 513.758 47.974 513.117 47.6094C512.477 47.2396 511.984 46.7109 511.641 46.0234C511.297 45.3359 511.125 44.5339 511.125 43.6172C511.125 42.1901 511.497 41.0807 512.242 40.2891C512.987 39.4974 514.034 39.1016 515.383 39.1016C516.221 39.1016 516.961 39.2839 517.602 39.6484C518.242 40.013 518.734 40.5365 519.078 41.2188C519.422 41.901 519.594 42.7005 519.594 43.6172ZM521.461 37.0078C521.461 36.2318 521.893 35.8438 522.758 35.8438C523.622 35.8438 524.055 36.2318 524.055 37.0078C524.055 37.3776 523.945 37.6667 523.727 37.875C523.513 38.0781 523.19 38.1797 522.758 38.1797C521.893 38.1797 521.461 37.7891 521.461 37.0078ZM523.945 48H521.562V39.2656H523.945V48ZM530 48.1562C527.281 48.1562 525.922 46.6641 525.922 43.6797C525.922 42.1953 526.292 41.0625 527.031 40.2812C527.771 39.4948 528.831 39.1016 530.211 39.1016C531.221 39.1016 532.128 39.2995 532.93 39.6953L532.227 41.5391C531.852 41.388 531.503 41.2656 531.18 41.1719C530.857 41.0729 530.534 41.0234 530.211 41.0234C528.971 41.0234 528.352 41.9036 528.352 43.6641C528.352 45.3724 528.971 46.2266 530.211 46.2266C530.669 46.2266 531.094 46.1667 531.484 46.0469C531.875 45.9219 532.266 45.7292 532.656 45.4688V47.5078C532.271 47.7526 531.88 47.9219 531.484 48.0156C531.094 48.1094 530.599 48.1562 530 48.1562ZM538.305 40.7969C537.799 40.7969 537.404 40.9583 537.117 41.2812C536.831 41.599 536.667 42.0521 536.625 42.6406H539.969C539.958 42.0521 539.805 41.599 539.508 41.2812C539.211 40.9583 538.81 40.7969 538.305 40.7969ZM538.641 48.1562C537.234 48.1562 536.135 47.7682 535.344 46.9922C534.552 46.2161 534.156 45.1172 534.156 43.6953C534.156 42.2318 534.521 41.1016 535.25 40.3047C535.984 39.5026 536.997 39.1016 538.289 39.1016C539.523 39.1016 540.484 39.4531 541.172 40.1562C541.859 40.8594 542.203 41.8307 542.203 43.0703V44.2266H536.57C536.596 44.9036 536.797 45.4323 537.172 45.8125C537.547 46.1927 538.073 46.3828 538.75 46.3828C539.276 46.3828 539.773 46.3281 540.242 46.2188C540.711 46.1094 541.201 45.9349 541.711 45.6953V47.5391C541.294 47.7474 540.849 47.901 540.375 48C539.901 48.1042 539.323 48.1562 538.641 48.1562ZM559.047 48H556.102L555.203 47.1172C554.208 47.8099 553.083 48.1562 551.828 48.1562C550.557 48.1562 549.549 47.8646 548.805 47.2812C548.06 46.6979 547.688 45.9089 547.688 44.9141C547.688 44.2005 547.844 43.5938 548.156 43.0938C548.474 42.5885 549.016 42.1172 549.781 41.6797C549.391 41.2318 549.107 40.8047 548.93 40.3984C548.753 39.987 548.664 39.5391 548.664 39.0547C548.664 38.263 548.966 37.625 549.57 37.1406C550.18 36.6562 550.992 36.4141 552.008 36.4141C552.977 36.4141 553.75 36.6406 554.328 37.0938C554.911 37.5417 555.203 38.1432 555.203 38.8984C555.203 39.5182 555.023 40.0859 554.664 40.6016C554.305 41.112 553.724 41.599 552.922 42.0625L555.141 44.2266C555.51 43.6172 555.831 42.8333 556.102 41.875H558.586C558.398 42.5781 558.141 43.2656 557.812 43.9375C557.484 44.6042 557.112 45.1953 556.695 45.7109L559.047 48ZM550.195 44.6875C550.195 45.1354 550.362 45.4922 550.695 45.7578C551.034 46.0234 551.466 46.1562 551.992 46.1562C552.648 46.1562 553.24 45.9974 553.766 45.6797L551.172 43.1016C550.87 43.3307 550.63 43.5703 550.453 43.8203C550.281 44.0703 550.195 44.3594 550.195 44.6875ZM553 39.1484C553 38.8724 552.906 38.6562 552.719 38.5C552.531 38.3385 552.289 38.2578 551.992 38.2578C551.643 38.2578 551.367 38.3411 551.164 38.5078C550.966 38.6745 550.867 38.9115 550.867 39.2188C550.867 39.6771 551.115 40.1823 551.609 40.7344C552.057 40.4844 552.401 40.2396 552.641 40C552.88 39.7552 553 39.4714 553 39.1484ZM574.117 42.1797C574.117 44.0599 573.581 45.5 572.508 46.5C571.44 47.5 569.896 48 567.875 48H564.641V36.5781H568.227C570.091 36.5781 571.539 37.0703 572.57 38.0547C573.602 39.0391 574.117 40.4141 574.117 42.1797ZM571.602 42.2422C571.602 39.7891 570.518 38.5625 568.352 38.5625H567.062V46H568.102C570.435 46 571.602 44.7474 571.602 42.2422ZM581.844 48L581.383 46.8125H581.32C580.919 47.3177 580.505 47.6693 580.078 47.8672C579.656 48.0599 579.104 48.1562 578.422 48.1562C577.583 48.1562 576.922 47.9167 576.438 47.4375C575.958 46.9583 575.719 46.276 575.719 45.3906C575.719 44.4635 576.042 43.7812 576.688 43.3438C577.339 42.901 578.318 42.6562 579.625 42.6094L581.141 42.5625V42.1797C581.141 41.2943 580.688 40.8516 579.781 40.8516C579.083 40.8516 578.263 41.0625 577.32 41.4844L576.531 39.875C577.536 39.349 578.651 39.0859 579.875 39.0859C581.047 39.0859 581.945 39.3411 582.57 39.8516C583.195 40.362 583.508 41.138 583.508 42.1797V48H581.844ZM581.141 43.9531L580.219 43.9844C579.526 44.0052 579.01 44.1302 578.672 44.3594C578.333 44.5885 578.164 44.9375 578.164 45.4062C578.164 46.0781 578.549 46.4141 579.32 46.4141C579.872 46.4141 580.312 46.2552 580.641 45.9375C580.974 45.6198 581.141 45.1979 581.141 44.6719V43.9531ZM589.648 46.2578C590.065 46.2578 590.565 46.1667 591.148 45.9844V47.7578C590.555 48.0234 589.826 48.1562 588.961 48.1562C588.008 48.1562 587.312 47.9167 586.875 47.4375C586.443 46.9531 586.227 46.2292 586.227 45.2656V41.0547H585.086V40.0469L586.398 39.25L587.086 37.4062H588.609V39.2656H591.055V41.0547H588.609V45.2656C588.609 45.6042 588.703 45.8542 588.891 46.0156C589.083 46.1771 589.336 46.2578 589.648 46.2578ZM598.469 48L598.008 46.8125H597.945C597.544 47.3177 597.13 47.6693 596.703 47.8672C596.281 48.0599 595.729 48.1562 595.047 48.1562C594.208 48.1562 593.547 47.9167 593.062 47.4375C592.583 46.9583 592.344 46.276 592.344 45.3906C592.344 44.4635 592.667 43.7812 593.312 43.3438C593.964 42.901 594.943 42.6562 596.25 42.6094L597.766 42.5625V42.1797C597.766 41.2943 597.312 40.8516 596.406 40.8516C595.708 40.8516 594.888 41.0625 593.945 41.4844L593.156 39.875C594.161 39.349 595.276 39.0859 596.5 39.0859C597.672 39.0859 598.57 39.3411 599.195 39.8516C599.82 40.362 600.133 41.138 600.133 42.1797V48H598.469ZM597.766 43.9531L596.844 43.9844C596.151 44.0052 595.635 44.1302 595.297 44.3594C594.958 44.5885 594.789 44.9375 594.789 45.4062C594.789 46.0781 595.174 46.4141 595.945 46.4141C596.497 46.4141 596.938 46.2552 597.266 45.9375C597.599 45.6198 597.766 45.1979 597.766 44.6719V43.9531Z" fill="#3B3D4B"/>
<circle cx="107.5" cy="12.5" r="10" stroke="#E5E5E5" stroke-width="5" stroke-dasharray="10 10"/>
<circle cx="246.5" cy="12.5" r="10" stroke="#E5E5E5" stroke-width="5" stroke-dasharray="10 10"/>
<circle cx="408.5" cy="12.5" r="10" stroke="#E5E5E5" stroke-width="5" stroke-dasharray="10 10"/>
<circle cx="550.5" cy="12.5" r="10" stroke="#E5E5E5" stroke-width="5" stroke-dasharray="10 10"/>
<path d="M0 13H88" stroke="url(#paint0_linear)"/>
<path d="M665 13H577" stroke="url(#paint1_linear)"/>
<path d="M133 13H221" stroke="url(#paint2_linear)"/>
<path d="M285 13H373" stroke="url(#paint3_linear)"/>
<path d="M437 13H517" stroke="url(#paint4_linear)"/>
<defs>
<linearGradient id="paint0_linear" x1="87.6654" y1="13" x2="0" y2="13" gradientUnits="userSpaceOnUse">
<stop stop-color="#E5E5E5"/>
<stop offset="1" stop-color="#E5E5E5" stop-opacity="0.19"/>
</linearGradient>
<linearGradient id="paint1_linear" x1="577.335" y1="13" x2="665" y2="13" gradientUnits="userSpaceOnUse">
<stop stop-color="#E5E5E5"/>
<stop offset="1" stop-color="#E5E5E5" stop-opacity="0.19"/>
</linearGradient>
<linearGradient id="paint2_linear" x1="177" y1="13" x2="177" y2="14" gradientUnits="userSpaceOnUse">
<stop stop-color="#E5E5E5"/>
<stop offset="1" stop-color="#E5E5E5" stop-opacity="0.19"/>
</linearGradient>
<linearGradient id="paint3_linear" x1="329" y1="13" x2="329" y2="14" gradientUnits="userSpaceOnUse">
<stop stop-color="#E5E5E5"/>
<stop offset="1" stop-color="#E5E5E5" stop-opacity="0.19"/>
</linearGradient>
<linearGradient id="paint4_linear" x1="477" y1="13" x2="477" y2="14" gradientUnits="userSpaceOnUse">
<stop stop-color="#E5E5E5"/>
<stop offset="1" stop-color="#E5E5E5" stop-opacity="0.19"/>
</linearGradient>
</defs>
</svg>
