<svg width="46" height="46" viewBox="0 0 46 46" fill="none" xmlns="http://www.w3.org/2000/svg">
<g clip-path="url(#clip0)">
<path d="M35.4583 12.4584C29.7083 12.4584 24.9167 17.25 24.9167 23C24.9167 25.4917 25.875 27.7917 27.4083 29.7084H18.5917C20.125 27.7917 21.0833 25.4917 21.0833 23C21.0833 17.25 16.2917 12.4584 10.5417 12.4584C4.79167 12.4584 0 17.25 0 23C0 28.75 4.79167 33.5417 10.5417 33.5417H35.4583C41.2083 33.5417 46 28.75 46 23C46 17.25 41.2083 12.4584 35.4583 12.4584ZM10.5417 29.7084C6.9 29.7084 3.83333 26.6417 3.83333 23C3.83333 19.3584 6.9 16.2917 10.5417 16.2917C14.1833 16.2917 17.25 19.3584 17.25 23C17.25 26.6417 14.1833 29.7084 10.5417 29.7084ZM35.4583 29.7084C31.8167 29.7084 28.75 26.6417 28.75 23C28.75 19.3584 31.8167 16.2917 35.4583 16.2917C39.1 16.2917 42.1667 19.3584 42.1667 23C42.1667 26.6417 39.1 29.7084 35.4583 29.7084Z" fill="#00daf7"/>
</g>
<defs>
<clipPath id="clip0">
<rect width="46" height="46" fill="#00daf7"/>
</clipPath>
</defs>
</svg>
