<svg width="30" height="30" viewBox="0 0 30 30" fill="none" xmlns="http://www.w3.org/2000/svg">
<g clip-path="url(#clip0)">
<path d="M28.4999 18.2774H25.0001V5.77744C25.0001 4.94888 24.3285 4.27734 23.5 4.27734C22.6717 4.27734 22.0001 4.94888 22.0001 5.77744V18.2774H8.00011V5.77744C8.00011 4.94888 7.32834 4.27734 6.50002 4.27734C5.67169 4.27734 5.00015 4.94888 5.00015 5.77744V18.2774H1.50009C0.671539 18.2774 0 18.9489 0 19.7775V22.7774C0 23.6057 0.671539 24.2773 1.50009 24.2773H4.50005V25.2775C4.50005 25.5535 4.72389 25.7774 4.99992 25.7774H8.00011C8.27614 25.7774 8.49998 25.5535 8.49998 25.2775V24.2773H21.5V25.2775C21.5 25.5535 21.7239 25.7774 22.0001 25.7774H25.0001C25.2761 25.7774 25.5 25.5535 25.5 25.2775V24.2773H28.5001C29.3285 24.2773 30 23.6057 30 22.7774V19.7775C30 18.9489 29.3285 18.2774 28.4999 18.2774ZM23.0001 5.77744C23.0001 5.50117 23.224 5.27733 23.5 5.27733C23.7762 5.27733 24.0001 5.50117 24.0001 5.77744V18.2774H23.0001V5.77744ZM5.99991 5.77744C5.99991 5.50117 6.22375 5.27733 6.50002 5.27733C6.77605 5.27733 6.99989 5.50117 6.99989 5.77744V18.2774H5.99991V5.77744ZM7.5 24.7774H5.50003V24.2773H7.5V24.7774ZM24.5 24.7774H22.5V24.2773H24.5V24.7774ZM29 22.7774C29 23.0534 28.7762 23.2773 28.4999 23.2773H1.50009C1.22383 23.2773 0.999985 23.0534 0.999985 22.7774V19.7775C0.999985 19.5012 1.22383 19.2773 1.50009 19.2773H28.4999C28.7762 19.2773 29 19.5012 29 19.7775V22.7774Z" fill="#3B3D4B"/>
<path d="M25.4999 19.7773C24.6715 19.7773 24 20.4489 24 21.2772C24 22.1055 24.6715 22.7773 25.4999 22.7773C26.3284 22.7773 27 22.1055 27 21.2772C27 20.4489 26.3284 19.7773 25.4999 19.7773ZM25.4999 21.7773C25.2238 21.7773 25 21.5535 25 21.2772C25 21.0012 25.2238 20.7773 25.4999 20.7773C25.7761 20.7773 26 21.0012 26 21.2772C26 21.5535 25.7761 21.7773 25.4999 21.7773Z" fill="#3B3D4B"/>
<path d="M21.5001 19.7773C20.6718 19.7773 20 20.4489 20 21.2772C20 22.1055 20.6718 22.7773 21.5001 22.7773C22.3284 22.7773 23.0002 22.1055 23.0002 21.2772C23.0002 20.4489 22.3284 19.7773 21.5001 19.7773ZM21.5001 21.7773C21.2238 21.7773 21 21.5535 21 21.2772C21 21.0012 21.2238 20.7773 21.5001 20.7773C21.7764 20.7773 22.0002 21.0012 22.0002 21.2772C22.0002 21.5535 21.7764 21.7773 21.5001 21.7773Z" fill="#3B3D4B"/>
<path d="M9.49988 20.2772C9.22385 20.2772 9 20.5011 9 20.7773V21.7773C9 22.0533 9.22385 22.2772 9.49988 22.2772C9.77614 22.2772 9.99998 22.0533 9.99998 21.7773V20.7773C9.99998 20.5011 9.77614 20.2772 9.49988 20.2772Z" fill="#3B3D4B"/>
<path d="M7.50011 20.2772C7.22408 20.2772 7 20.5011 7 20.7773V21.7773C7 22.0533 7.22408 22.2772 7.50011 22.2772C7.77637 22.2772 8.00021 22.0533 8.00021 21.7773V20.7773C8.00021 20.5011 7.77637 20.2772 7.50011 20.2772Z" fill="#3B3D4B"/>
<path d="M5.50011 20.2772C5.22385 20.2772 5 20.5011 5 20.7773V21.7773C5 22.0533 5.22385 22.2772 5.50011 22.2772C5.77614 22.2772 6.00021 22.0533 6.00021 21.7773V20.7773C5.99998 20.5011 5.77614 20.2772 5.50011 20.2772Z" fill="#3B3D4B"/>
<path d="M3.50011 20.2772C3.22385 20.2772 3 20.5011 3 20.7773V21.7773C3 22.0533 3.22385 22.2772 3.50011 22.2772C3.77614 22.2772 3.99998 22.0533 3.99998 21.7773V20.7773C3.99998 20.5011 3.77614 20.2772 3.50011 20.2772Z" fill="#3B3D4B"/>
</g>
<defs>
<clipPath id="clip0">
<rect width="30" height="30" fill="white"/>
</clipPath>
</defs>
</svg>
